<svg width="128" height="128" fill="none" xmlns="http://www.w3.org/2000/svg"><path d="m119.122 68.125-.937-.047.192-3.813.936.047-.191 3.813zM114.777 69.85l8.591 1.537-.52 2.902c-.12.672-.333 1.202-.639 1.592-.304.39-.673.653-1.107.789a2.933 2.933 0 0 1-1.41.068c-.506-.09-.937-.275-1.291-.552a2.225 2.225 0 0 1-.753-1.117c-.144-.467-.157-1.034-.038-1.7l.421-2.348.939.168-.414 2.315c-.082.459-.081.84.003 1.144.084.306.238.544.461.714.226.173.511.29.855.352s.656.051.936-.031c.281-.083.516-.253.706-.51.194-.257.332-.618.415-1.082l.327-1.83-7.668-1.37.186-1.041zm3.136 4.734-4.238 1.424.216-1.208 4.232-1.39-.21 1.174zM112.43 79.49c.192-.6.491-1.076.895-1.427a2.806 2.806 0 0 1 1.441-.643c.557-.079 1.154-.016 1.792.189.639.205 1.164.501 1.577.89.414.392.691.842.83 1.349.14.51.121 1.047-.06 1.61a3.115 3.115 0 0 1-.47.91c-.21.281-.478.513-.805.695-.324.182-.709.287-1.156.314-.447.026-.962-.053-1.544-.24l-.405-.13 1.539-4.805.828.266-1.227 3.83c.351.113.688.143 1.009.091.32-.05.601-.177.843-.383.241-.203.417-.478.528-.824.122-.382.133-.742.033-1.082a1.965 1.965 0 0 0-.526-.87 2.256 2.256 0 0 0-.895-.533l-.552-.177c-.47-.15-.895-.198-1.275-.14-.377.06-.698.21-.962.448a2.114 2.114 0 0 0-.578.938c-.081.251-.118.49-.113.715.007.23.059.441.154.636.099.196.243.369.434.52l-.556.841a2.148 2.148 0 0 1-.671-.756 2.506 2.506 0 0 1-.279-1.03c-.021-.379.035-.78.171-1.202zM110.082 85.426c.26-.556.615-.974 1.065-1.252.45-.279.956-.419 1.518-.42.562 0 1.138.138 1.73.415.603.281 1.082.64 1.439 1.077.359.44.575.921.648 1.442.075.524-.013 1.053-.263 1.589a2.935 2.935 0 0 1-.759 1.019 2.383 2.383 0 0 1-1.033.518 2.23 2.23 0 0 1-1.158-.057l.426-.91c.302.056.614.014.934-.128.322-.138.577-.408.764-.81.166-.355.219-.71.159-1.064a1.998 1.998 0 0 0-.485-.984c-.263-.302-.619-.558-1.067-.767-.458-.214-.89-.329-1.297-.343a2.023 2.023 0 0 0-1.081.247c-.313.18-.553.45-.722.81-.111.237-.17.471-.178.703a1.464 1.464 0 0 0 .548 1.202l-.426.91a2.335 2.335 0 0 1-.767-.824c-.184-.33-.28-.7-.29-1.11-.008-.404.09-.826.295-1.263zM106.102 88.12a2.221 2.221 0 0 1 .493-.556l.613.69a1.93 1.93 0 0 0-.404.51.78.78 0 0 0-.053.557c.046.204.177.446.393.726l.332.432 6.856 1.465-.582.922-5.375-1.256-.037.058 3.447 4.312-.582.922-4.86-6.352a2.843 2.843 0 0 1-.462-.841 1.745 1.745 0 0 1-.078-.81c.037-.262.137-.522.299-.779zM103.226 96.252c.389-.474.836-.79 1.341-.95a2.835 2.835 0 0 1 1.575-.03c.544.138 1.069.414 1.574.829.514.422.89.888 1.128 1.4.239.515.329 1.034.271 1.556-.057.527-.273 1.018-.648 1.475a2.93 2.93 0 0 1-.987.8c-.366.177-.742.26-1.129.247a2.222 2.222 0 0 1-1.108-.342l.638-.777c.279.13.591.166.937.108.346-.055.659-.253.94-.596.249-.303.388-.633.417-.991a1.996 1.996 0 0 0-.227-1.074c-.18-.358-.461-.694-.844-1.007-.39-.321-.781-.539-1.172-.654a2.022 2.022 0 0 0-1.108-.027 1.761 1.761 0 0 0-.9.607 1.794 1.794 0 0 0-.346.636 1.467 1.467 0 0 0 .234 1.3l-.638.778a2.327 2.327 0 0 1-.54-.989 2.365 2.365 0 0 1-.006-1.147c.092-.394.291-.778.598-1.152zM106.258 106.095l-6.238-6.104.703-.719 6.238 6.104-.703.719zM96.72 102.843c.48-.409.985-.656 1.513-.741a2.813 2.813 0 0 1 1.564.213c.514.227.988.595 1.423 1.106.435.51.725 1.039.871 1.587.145.552.143 1.08-.006 1.584-.15.508-.45.953-.9 1.336a3.09 3.09 0 0 1-.879.525 2.5 2.5 0 0 1-1.05.167c-.372-.016-.755-.13-1.149-.343-.394-.213-.789-.552-1.185-1.017l-.276-.324 3.841-3.272.564.662-3.063 2.609c.24.281.51.484.81.609.298.126.604.166.918.118.312-.045.607-.186.884-.421.305-.26.504-.561.598-.902a1.97 1.97 0 0 0 .012-1.017 2.26 2.26 0 0 0-.479-.925l-.376-.441c-.32-.376-.657-.64-1.01-.791a1.843 1.843 0 0 0-1.054-.127 2.115 2.115 0 0 0-.985.492 2.195 2.195 0 0 0-.473.549 1.532 1.532 0 0 0-.204.621c-.02.219.012.442.094.67l-.916.422a2.152 2.152 0 0 1-.172-.996 2.51 2.51 0 0 1 .306-1.021c.182-.334.442-.645.779-.932zM91.842 106.5a2.56 2.56 0 0 1 1.437-.437c.502.007.99.159 1.462.455.474.299.9.74 1.276 1.322.373.577.598 1.142.675 1.695.076.553.013 1.059-.19 1.518-.204.46-.537.84-1 1.139-.358.231-.68.354-.964.369a1.74 1.74 0 0 1-.738-.09 8.335 8.335 0 0 1-.498-.196l-.071.046 1.75 2.705-.845.546-4.74-7.328.817-.528.546.845.1-.065a6.43 6.43 0 0 1 .02-.551c.017-.224.093-.465.228-.721.137-.254.382-.496.735-.724zm.376.833c-.339.219-.568.492-.688.82-.118.33-.136.692-.054 1.085.084.396.26.802.528 1.217.265.41.557.731.875.961.32.233.652.36.997.381.347.023.692-.077 1.035-.299.358-.231.597-.516.717-.854.119-.334.137-.696.054-1.085a3.511 3.511 0 0 0-.5-1.159 3.602 3.602 0 0 0-.869-.95 2.077 2.077 0 0 0-1.027-.412c-.359-.032-.715.066-1.068.295zM83.347 115.739l-.362-.865 3.522-1.474.362.865-3.522 1.474zM76.47 122.461l-2.026-8.488 1.028-.246 1.769 7.411.05-.011 1.744-1.871.249 1.044-1.786 1.916-1.028.245zM69.284 114.676c.638-.069 1.2.046 1.687.344.487.302.885.772 1.194 1.41.31.641.516 1.433.618 2.376.102.938.07 1.751-.096 2.441-.167.692-.457 1.238-.868 1.637-.414.402-.937.637-1.57.706-.632.068-1.192-.05-1.68-.354-.49-.301-.889-.772-1.198-1.413-.313-.638-.52-1.426-.62-2.363-.103-.944-.072-1.761.093-2.454.166-.689.454-1.233.865-1.632.411-.396.936-.629 1.575-.698zm.1.932c-.632.069-1.09.427-1.375 1.075-.284.648-.365 1.537-.242 2.667.081.751.231 1.382.45 1.893.215.511.487.888.817 1.133.326.244.698.344 1.116.299.627-.068 1.084-.431 1.37-1.087.286-.654.368-1.545.246-2.672-.081-.751-.23-1.381-.445-1.889s-.485-.883-.812-1.125a1.549 1.549 0 0 0-1.124-.294zM61.75 114.959c.642.025 1.182.221 1.62.587.438.37.763.893.976 1.569.212.679.3 1.493.263 2.441-.036.942-.186 1.742-.45 2.4-.268.661-.634 1.159-1.099 1.493-.468.338-1.02.494-1.655.469-.636-.024-1.173-.223-1.61-.595-.441-.369-.768-.894-.98-1.573-.216-.676-.305-1.486-.27-2.428.038-.948.188-1.753.452-2.414.264-.658.63-1.154 1.094-1.488.465-.332 1.018-.486 1.66-.461zm-.035.937c-.636-.025-1.142.263-1.518.862-.376.6-.585 1.468-.63 2.603-.028.755.028 1.401.17 1.938.137.537.352.951.642 1.241a1.53 1.53 0 0 0 1.061.459c.63.024 1.135-.268 1.514-.876.379-.605.59-1.474.634-2.607.029-.755-.026-1.399-.165-1.934-.138-.534-.351-.944-.639-1.231a1.552 1.552 0 0 0-1.07-.455zM52.613 115.619l-.09.451a1.948 1.948 0 0 1-.363.819 1.573 1.573 0 0 1-.693.514c-.282.109-.601.128-.958.057-.362-.072-.65-.212-.864-.419a1.526 1.526 0 0 1-.431-.738 1.978 1.978 0 0 1-.018-.894l.09-.451c.061-.312.183-.587.363-.823.177-.234.405-.406.684-.516.277-.107.593-.125.95-.054.362.072.652.21.869.416.216.208.363.454.44.739.075.287.083.587.02.899zm-.943.282.09-.452a1.364 1.364 0 0 0-.045-.734c-.083-.228-.274-.372-.575-.431-.293-.059-.519.002-.68.182a1.365 1.365 0 0 0-.322.661l-.09.452a1.39 1.39 0 0 0 .038.728c.076.23.265.374.566.434.292.058.523-.003.692-.184.166-.178.275-.397.326-.656zm4.233 5.463-.09.452a1.938 1.938 0 0 1-.363.818 1.566 1.566 0 0 1-.693.514c-.282.109-.601.129-.958.058-.362-.072-.65-.212-.864-.42a1.517 1.517 0 0 1-.431-.737 1.978 1.978 0 0 1-.018-.894l.09-.452c.062-.312.183-.586.363-.822.177-.235.405-.407.685-.516.276-.107.592-.126.949-.055.362.072.652.211.869.416.216.208.363.455.44.739.076.288.083.587.02.899zm-.943.282.09-.451a1.367 1.367 0 0 0-.045-.735c-.082-.227-.274-.371-.575-.431-.292-.058-.519.003-.68.182a1.37 1.37 0 0 0-.322.662l-.09.451c-.05.259-.038.502.038.729.076.229.265.374.566.434.292.058.523-.003.692-.184a1.32 1.32 0 0 0 .326-.657zm1.917-6.848-7.586 7.39-.952-.189 7.585-7.391.953.19zM40.476 114.354l.362-.865 3.522 1.474-.362.865-3.522-1.474zM36.764 107.717l-3.05 8.518-.879-.615 2.581-6.869-.07-.049-5.597 4.758-.978-.684 2.553-6.889-.07-.049-5.57 4.778-.879-.616 6.96-5.782.893.626-2.41 6.802.056.039 5.566-4.593.894.625zM27.312 99.996c.45.442.74.923.87 1.443a2.8 2.8 0 0 1-.076 1.576c-.181.532-.507 1.036-.978 1.514-.47.477-.972.813-1.505 1.005a2.886 2.886 0 0 1-1.578.132c-.52-.104-.99-.364-1.41-.779a3.101 3.101 0 0 1-.6-.83 2.506 2.506 0 0 1-.257-1.032c-.017-.372.064-.763.241-1.174.178-.411.481-.834.91-1.269l.3-.304 3.593 3.542-.61.619-2.866-2.824c-.259.263-.438.55-.536.86-.1.308-.113.617-.038.925.072.307.238.588.497.844.286.281.602.453.95.517.344.064.682.038 1.015-.077.333-.115.626-.301.879-.557l.407-.413c.347-.352.58-.711.7-1.075.116-.365.127-.718.035-1.061a2.108 2.108 0 0 0-.577-.939 2.188 2.188 0 0 0-.588-.424 1.54 1.54 0 0 0-.636-.149c-.22 0-.439.051-.66.153l-.5-.876c.304-.163.63-.25.978-.258.345-.006.693.066 1.044.216.349.152.68.383.996.695zM24.563 97.364l-6.905 5.338-.615-.796 2.549-1.97-.053-.068a8.908 8.908 0 0 1-.531.023 1.797 1.797 0 0 1-.727-.16c-.265-.11-.528-.334-.789-.671-.337-.437-.525-.905-.564-1.406-.04-.502.069-1 .325-1.496s.656-.954 1.2-1.374c.548-.424 1.096-.699 1.642-.823.544-.123 1.054-.104 1.53.056.473.162.877.459 1.21.89.258.333.409.642.453.927.042.287.034.539-.024.756-.06.22-.115.395-.164.526l.073.094.795-.615.595.77zm-3.194 1.22c.39-.303.691-.627.902-.972.208-.344.31-.692.31-1.042-.005-.35-.13-.683-.377-1.002-.257-.333-.56-.543-.907-.63a2.033 2.033 0 0 0-1.105.047c-.39.118-.77.32-1.138.605a3.447 3.447 0 0 0-.854.93c-.21.337-.312.684-.31 1.041 0 .356.13.703.39 1.04.25.324.542.532.877.626.332.095.687.086 1.066-.028.377-.111.759-.317 1.146-.615zM13.527 90.127l.675.652c-.102.125-.186.271-.253.438a1.22 1.22 0 0 0-.087.563c.013.21.093.44.24.694.201.346.449.588.742.726.29.138.557.135.8-.006a.716.716 0 0 0 .375-.533c.034-.23-.004-.536-.114-.919l-.282-.96c-.171-.577-.202-1.064-.093-1.459.106-.393.357-.705.752-.935a1.661 1.661 0 0 1 1.033-.225c.362.036.713.177 1.053.423.34.246.638.589.894 1.029.335.577.487 1.127.456 1.651-.03.524-.257.976-.68 1.357l-.686-.706c.259-.255.401-.537.426-.844.024-.31-.067-.642-.274-.999-.236-.405-.509-.677-.819-.815-.314-.14-.593-.139-.836.003a.761.761 0 0 0-.374.493c-.055.216-.033.486.066.809l.327 1.072c.178.59.209 1.08.092 1.474-.12.392-.376.701-.767.928-.319.186-.654.26-1.003.223a2.117 2.117 0 0 1-1.009-.404 3.007 3.007 0 0 1-.83-.947c-.326-.56-.459-1.071-.399-1.533.06-.465.25-.881.575-1.25zM9.964 85.963l.779-.347 1.379 3.099-.779.346-1.38-3.099zm-.455 2.833-.41-.919 5.7-2.537c.26-.115.438-.24.534-.373a.64.64 0 0 0 .125-.41 1.3 1.3 0 0 0-.11-.413 1.781 1.781 0 0 0-.126-.242c-.041-.06-.075-.107-.1-.142l.742-.554c.051.051.113.128.186.23.076.1.152.235.228.406.116.26.173.539.172.838-.002.296-.08.577-.236.842-.157.262-.409.471-.757.626L9.51 88.796zM14.59 79.145c.174.565.193 1.102.055 1.61a2.866 2.866 0 0 1-.822 1.342c-.41.385-.94.677-1.585.876-.652.2-1.257.257-1.816.17a2.86 2.86 0 0 1-1.438-.644c-.4-.344-.687-.798-.861-1.363-.174-.564-.192-1.1-.053-1.606.137-.51.413-.957.826-1.343.412-.388.944-.683 1.596-.883.646-.2 1.248-.254 1.805-.164a2.827 2.827 0 0 1 1.434.647c.399.34.685.793.86 1.358zm-.863.266c-.132-.43-.35-.748-.656-.958a2.034 2.034 0 0 0-1.057-.347c-.4-.023-.808.03-1.226.159a3.508 3.508 0 0 0-1.107.56c-.32.243-.55.538-.687.884-.137.345-.14.733-.008 1.162.133.428.353.747.66.956.308.208.663.323 1.065.345a3.51 3.51 0 0 0 1.23-.16 3.474 3.474 0 0 0 1.104-.559c.318-.243.543-.537.678-.882.135-.344.136-.731.004-1.16zM6.257 72.987l.838-.156.648 3.468-.838.157-.648-3.469zm6.888 1.228-7.322 1.368c-.369.069-.692.04-.97-.088a1.637 1.637 0 0 1-.679-.57 2.169 2.169 0 0 1-.348-.842 2.521 2.521 0 0 1-.052-.606c.01-.16.025-.282.044-.364l.908.126a4.96 4.96 0 0 0-.023.22c-.01.092 0 .209.026.351.061.327.187.548.38.662.19.112.446.138.764.078l7.088-1.323.184.988zM5.647 67.709l.849-.08.326 3.514-.849.079-.326-3.513zm6.746 1.856-7.417.688c-.373.035-.693-.024-.958-.176a1.637 1.637 0 0 1-.623-.631 2.17 2.17 0 0 1-.27-.87 2.522 2.522 0 0 1 .004-.608c.025-.16.051-.279.078-.358l.892.208a4.919 4.919 0 0 0-.044.218c-.017.09-.019.207-.005.352.03.33.136.562.316.693.18.13.432.179.755.149l7.179-.667.093 1.002zM8.047 58.68l.936.054-.221 3.812-.936-.055.22-3.811zM12.816 54.304l-8.481-2.058.695-2.866c.161-.662.406-1.178.736-1.549a2.23 2.23 0 0 1 1.152-.72c.442-.109.913-.103 1.412.018.5.122.918.331 1.255.63.337.297.565.684.683 1.16.116.476.094 1.042-.066 1.699l-.562 2.32-.928-.226.555-2.286c.11-.453.132-.833.066-1.141a1.292 1.292 0 0 0-.416-.742 1.945 1.945 0 0 0-.832-.403 2.024 2.024 0 0 0-.936-.026c-.285.066-.53.22-.736.466-.209.245-.369.596-.48 1.055l-.438 1.805 7.57 1.837-.249 1.027zm-2.841-4.916 4.316-1.163-.29 1.193-4.307 1.13.28-1.16zM15.786 44.72c-.23.587-.559 1.043-.985 1.367-.428.32-.921.504-1.48.55-.56.043-1.152-.058-1.776-.303-.624-.245-1.13-.575-1.516-.989a2.89 2.89 0 0 1-.742-1.399c-.108-.518-.054-1.052.162-1.602.125-.318.3-.61.528-.878.227-.268.51-.482.847-.643.335-.161.726-.241 1.174-.24.448.002.956.115 1.525.338l.397.156-1.843 4.696-.81-.317 1.47-3.745a2.147 2.147 0 0 0-1.001-.155 1.67 1.67 0 0 0-.866.329c-.254.187-.447.45-.58.789-.146.372-.18.731-.102 1.076.076.342.233.643.47.903.236.261.522.457.858.59l.54.21c.46.181.88.255 1.263.222.38-.037.71-.165.99-.386a2.11 2.11 0 0 0 .636-.899c.096-.246.15-.481.158-.706a1.533 1.533 0 0 0-.113-.645 1.549 1.549 0 0 0-.4-.546l.61-.804c.269.215.476.481.62.797.142.315.213.664.213 1.045a3.32 3.32 0 0 1-.247 1.19zM18.503 38.94c-.294.538-.675.932-1.142 1.182-.466.25-.98.357-1.54.323-.562-.035-1.128-.209-1.702-.522-.583-.32-1.04-.708-1.368-1.166a2.895 2.895 0 0 1-.556-1.48c-.042-.527.08-1.05.363-1.569.22-.404.495-.727.821-.97a2.383 2.383 0 0 1 1.064-.452c.382-.06.766-.016 1.153.13l-.483.883a1.559 1.559 0 0 0-.94.068c-.33.117-.602.37-.814.76a1.767 1.767 0 0 0-.226 1.051c.037.354.178.692.423 1.013.243.318.582.596 1.016.833.444.243.868.384 1.273.424.407.038.772-.022 1.094-.179.324-.16.58-.414.772-.763.125-.23.2-.459.222-.69a1.469 1.469 0 0 0-.085-.663 1.502 1.502 0 0 0-.387-.57l.483-.883a2.33 2.33 0 0 1 .933 1.997c-.017.405-.142.819-.374 1.243zM22.633 36.513a2.202 2.202 0 0 1-.526.524l-.569-.726c.194-.162.339-.323.435-.485a.776.776 0 0 0 .088-.552c-.034-.206-.15-.456-.347-.75l-.305-.45-6.752-1.89.639-.884 5.286 1.588.04-.055-3.171-4.518.638-.885 4.455 6.643c.201.299.337.588.409.868.074.28.083.552.028.813-.054.26-.17.512-.348.759zM25.975 28.608c-.418.449-.884.737-1.398.864a2.832 2.832 0 0 1-1.573-.066c-.535-.171-1.042-.48-1.52-.925-.487-.452-.834-.941-1.04-1.466a2.895 2.895 0 0 1-.174-1.571c.089-.522.335-1 .737-1.432a2.935 2.935 0 0 1 1.035-.737 2.383 2.383 0 0 1 1.142-.177c.386.036.747.172 1.086.41l-.685.736a1.56 1.56 0 0 0-.929-.165c-.348.032-.674.211-.975.536a1.766 1.766 0 0 0-.478.964c-.052.351.002.713.16 1.085.158.369.418.721.78 1.058.37.344.747.586 1.13.724.385.137.753.17 1.104.096.353-.075.665-.258.936-.55.178-.191.306-.396.385-.614.078-.218.105-.439.081-.663a1.503 1.503 0 0 0-.234-.649l.684-.736a2.328 2.328 0 0 1 .414 2.165c-.117.388-.34.759-.668 1.113zM23.456 18.68l5.85 6.477-.747.674-5.85-6.477.747-.674zM32.907 22.396c-.505.378-1.023.593-1.556.645a2.803 2.803 0 0 1-1.548-.31c-.499-.258-.95-.655-1.352-1.191-.402-.536-.659-1.082-.77-1.638a2.891 2.891 0 0 1 .104-1.58c.18-.498.507-.924.98-1.279.273-.204.576-.36.91-.47a2.503 2.503 0 0 1 1.059-.1c.37.038.745.176 1.125.413s.753.6 1.12 1.088l.255.341-4.036 3.027-.522-.695 3.219-2.414a2.145 2.145 0 0 0-.771-.658 1.669 1.669 0 0 0-.91-.175 1.742 1.742 0 0 0-.907.366c-.32.24-.538.528-.653.863-.114.33-.14.669-.075 1.015.064.346.205.663.421.952l.348.463c.297.396.616.68.959.853.343.168.69.232 1.044.191.35-.043.689-.186 1.014-.43.211-.158.38-.331.506-.518.127-.191.208-.394.242-.608a1.548 1.548 0 0 0-.053-.674l.941-.365c.116.325.153.66.11 1.005a2.513 2.513 0 0 1-.369 1 3.32 3.32 0 0 1-.835.883zM37.853 19.129a2.562 2.562 0 0 1-1.462.346c-.5-.038-.977-.22-1.43-.546-.455-.327-.852-.794-1.19-1.398-.337-.6-.526-1.178-.568-1.734-.042-.556.053-1.058.284-1.504.232-.446.588-.804 1.069-1.074.372-.208.7-.311.985-.308.286-.001.53.045.732.137.202.088.363.163.483.226l.075-.041-1.577-2.81.877-.492 4.272 7.61-.848.476-.492-.877-.104.058c-.006.14-.024.323-.054.549a1.872 1.872 0 0 1-.273.705c-.152.245-.412.471-.779.677zm-.323-.855c.352-.197.598-.456.738-.775.138-.322.179-.682.121-1.08a3.64 3.64 0 0 0-.45-1.248c-.24-.426-.51-.764-.814-1.014a1.867 1.867 0 0 0-.971-.442c-.345-.044-.695.034-1.052.234-.371.208-.627.478-.768.807-.14.326-.18.686-.122 1.08.06.39.202.786.427 1.188.228.406.497.74.807 1.003.312.258.645.417 1 .475.356.054.717-.022 1.084-.228zM46.815 10.44l.306.885-3.61 1.247-.305-.886 3.609-1.247zM54.247 4.093l1.47 8.602-1.041.178-1.284-7.51-.05.008-1.862 1.754-.181-1.059 1.906-1.795 1.042-.178zM60.746 12.303c-.64.03-1.195-.12-1.663-.448-.467-.33-.836-.824-1.105-1.48-.27-.658-.426-1.462-.47-2.41-.044-.942.038-1.752.246-2.43.21-.68.532-1.208.968-1.58.437-.376.974-.579 1.61-.608.635-.03 1.187.123 1.654.456.47.331.84.826 1.11 1.485.272.655.43 1.454.474 2.396.044.948-.038 1.763-.245 2.443-.208.678-.529 1.204-.964 1.577-.435.37-.973.57-1.614.6zm-.043-.936c.636-.03 1.115-.36 1.439-.989.323-.629.459-1.511.406-2.646-.035-.755-.145-1.394-.332-1.917-.183-.524-.432-.917-.746-1.181a1.524 1.524 0 0 0-1.096-.368c-.63.03-1.108.363-1.434 1-.326.636-.463 1.52-.41 2.652.035.755.144 1.393.327 1.913.184.52.43.912.741 1.173.314.261.682.382 1.105.363zM68.477 12.46c-.639-.065-1.165-.294-1.58-.687-.414-.395-.706-.937-.877-1.625-.17-.691-.208-1.509-.113-2.453.094-.938.294-1.728.598-2.368.307-.643.703-1.117 1.188-1.422.488-.308 1.048-.43 1.682-.367.633.064 1.156.295 1.57.694.417.396.71.94.881 1.63.174.689.213 1.502.119 2.44-.095.945-.295 1.738-.6 2.381-.304.64-.698 1.114-1.183 1.419-.484.302-1.046.421-1.685.357zm.094-.934c.633.064 1.156-.192 1.568-.767.412-.575.675-1.428.788-2.559.076-.752.06-1.4-.048-1.945-.105-.544-.294-.97-.566-1.277a1.524 1.524 0 0 0-1.03-.524c-.628-.063-1.15.197-1.565.78-.416.581-.68 1.436-.793 2.563-.076.752-.061 1.4.044 1.94.106.543.293.965.562 1.27.272.304.619.477 1.04.52zM77.567 12.335l.119-.444c.082-.308.22-.572.414-.794.198-.223.44-.38.725-.468.289-.09.609-.089.96.005.357.095.635.253.835.474.2.218.328.473.383.764a1.98 1.98 0 0 1-.04.893l-.119.445c-.082.308-.22.573-.416.798-.191.222-.43.379-.716.47-.283.09-.6.087-.951-.007-.357-.095-.637-.252-.84-.471a1.58 1.58 0 0 1-.391-.766 1.97 1.97 0 0 1 .037-.899zm.958-.22-.118.444c-.068.256-.07.501-.003.737.068.232.25.388.546.467.288.077.518.031.69-.138.174-.17.296-.384.364-.64l.119-.444c.068-.255.071-.498.01-.73-.062-.233-.24-.39-.537-.469-.288-.077-.522-.03-.703.139a1.32 1.32 0 0 0-.368.634zm-3.87-5.726.119-.445c.082-.307.22-.572.415-.793.198-.224.44-.38.725-.468.288-.09.608-.09.96.005.357.095.635.253.835.474.2.218.328.473.382.764a1.98 1.98 0 0 1-.04.893l-.118.445a1.97 1.97 0 0 1-.416.797c-.192.223-.43.38-.717.47-.282.09-.6.088-.95-.006-.357-.095-.637-.252-.84-.471a1.577 1.577 0 0 1-.392-.766 1.97 1.97 0 0 1 .037-.899zm.959-.22-.119.444c-.068.255-.069.5-.002.736.067.233.249.389.545.468.289.077.519.03.69-.138.175-.171.297-.384.365-.64l.118-.444c.069-.255.072-.499.01-.73-.061-.234-.24-.39-.536-.47-.289-.076-.523-.03-.703.14a1.32 1.32 0 0 0-.368.634zm-2.356 6.71 8.048-6.885.939.25-8.048 6.886-.939-.251zM86.862 12.965l-.368.862-3.511-1.5.368-.863 3.511 1.5zM88.306 18.301l2.671-8.644.906.576-2.276 6.976.072.046 5.383-5 1.006.641-2.248 6.994.072.046 5.355-5.018.906.577-6.699 6.082-.92-.586 2.108-6.901-.057-.037-5.359 4.834-.92-.586zM98.04 25.534c-.467-.423-.778-.891-.93-1.404a2.803 2.803 0 0 1 .007-1.579c.157-.539.46-1.057.91-1.554.45-.498.936-.855 1.46-1.07a2.891 2.891 0 0 1 1.571-.201c.523.082 1.004.32 1.442.717.253.228.465.496.636.803.17.307.271.647.302 1.02.033.37-.031.765-.19 1.183-.16.419-.445.854-.854 1.308l-.286.316-3.744-3.382.583-.645 2.985 2.696c.248-.274.414-.568.498-.882.087-.312.086-.62-.002-.926a1.734 1.734 0 0 0-.533-.82 1.804 1.804 0 0 0-.972-.476 1.962 1.962 0 0 0-1.01.12c-.328.13-.612.329-.854.596l-.388.43c-.332.367-.55.735-.653 1.105-.1.369-.096.723.011 1.061.11.337.316.64.617.913.196.177.398.31.606.398.211.088.426.128.642.12.219-.008.437-.069.652-.18l.538.853a2.148 2.148 0 0 1-.965.3 2.513 2.513 0 0 1-1.052-.17 3.319 3.319 0 0 1-1.026-.65zM101.001 28.118l6.665-5.634.65.768-2.461 2.08.055.065a8.95 8.95 0 0 1 .53-.046c.223-.014.468.029.733.128.27.099.543.311.818.637.356.42.564.88.625 1.38.061.498-.025 1.001-.259 1.508-.234.506-.614.981-1.139 1.425-.529.448-1.064.746-1.605.894-.538.146-1.048.15-1.531.01a2.562 2.562 0 0 1-1.248-.836c-.271-.32-.436-.623-.492-.906a1.88 1.88 0 0 1-.01-.756c.051-.222.098-.4.142-.533l-.077-.091-.768.65-.628-.743zm3.138-1.358c-.377.32-.664.656-.859 1.011a1.975 1.975 0 0 0-.264 1.054c.02.349.159.677.42.985.271.321.582.518.933.59.355.071.723.04 1.103-.096a3.551 3.551 0 0 0 1.11-.654c.351-.297.622-.619.813-.966.194-.346.282-.698.263-1.054-.014-.356-.159-.697-.434-1.022-.264-.313-.565-.508-.903-.587a1.868 1.868 0 0 0-1.065.074c-.371.128-.744.35-1.117.665zM112.293 34.767l-.703-.622c.096-.13.174-.279.234-.449a1.22 1.22 0 0 0 .062-.566c-.022-.209-.112-.436-.27-.682-.217-.337-.475-.569-.774-.694-.296-.124-.562-.11-.799.042a.718.718 0 0 0-.351.55c-.024.23.028.535.155.912l.324.947c.196.57.249 1.053.157 1.453-.089.398-.326.72-.711.967a1.66 1.66 0 0 1-1.021.27 2.143 2.143 0 0 1-1.071-.375c-.351-.231-.664-.56-.938-.989-.361-.561-.537-1.105-.529-1.63.007-.524.214-.986.62-1.385l.716.675c-.247.267-.377.554-.389.862-.01.31.096.639.319.986.253.394.537.654.854.778.32.126.598.113.835-.04a.765.765 0 0 0 .352-.508c.045-.219.011-.487-.102-.806l-.374-1.056c-.204-.582-.256-1.071-.157-1.469.103-.397.345-.717.725-.961.311-.2.642-.289.993-.267a2.12 2.12 0 0 1 1.026.36c.332.218.623.521.871.908.35.546.505 1.05.465 1.515a2.294 2.294 0 0 1-.519 1.274zM116.054 38.764l-.763.38-1.516-3.033.762-.381 1.517 3.034zm.328-2.851.45.9-5.581 2.788c-.254.127-.426.26-.517.396a.638.638 0 0 0-.106.416c.019.14.061.276.127.408.05.099.095.178.137.236l.107.137-.717.587a2.043 2.043 0 0 1-.196-.221 2.111 2.111 0 0 1-.246-.397 2.013 2.013 0 0 1-.209-.828c-.012-.297.055-.58.198-.852.145-.27.388-.49.728-.66l5.825-2.91zM111.793 45.885c-.199-.556-.242-1.091-.127-1.606.115-.512.369-.971.761-1.377.392-.403.907-.719 1.543-.947.642-.23 1.244-.314 1.806-.253a2.86 2.86 0 0 1 1.466.58c.415.325.723.765.922 1.322.199.556.241 1.09.126 1.602a2.822 2.822 0 0 1-.765 1.378c-.394.407-.912.726-1.554.955-.637.228-1.235.31-1.796.245a2.831 2.831 0 0 1-1.462-.58c-.414-.323-.721-.762-.92-1.319zm.851-.304c.151.422.384.731.698.926a2.04 2.04 0 0 0 1.072.3c.4.005.806-.067 1.218-.214a3.51 3.51 0 0 0 1.08-.61c.309-.258.524-.563.646-.914.122-.351.107-.738-.045-1.16-.151-.423-.385-.732-.702-.926a2.062 2.062 0 0 0-1.08-.297 3.507 3.507 0 0 0-1.221.216c-.412.147-.771.35-1.077.608a2.03 2.03 0 0 0-.638.911c-.119.35-.103.737.049 1.16zM120.373 51.556l-.83.194-.805-3.435.829-.195.806 3.436zm-6.937-.912 7.252-1.701c.365-.086.69-.071.973.043.284.114.519.294.705.54.186.245.314.52.386.824.056.24.083.441.08.602a2.432 2.432 0 0 1-.028.366l-.913-.084c.005-.053.01-.127.014-.222a1.331 1.331 0 0 0-.043-.349c-.076-.323-.212-.538-.409-.643-.196-.103-.452-.117-.767-.043l-7.02 1.646-.23-.979zM121.234 56.825l-.844.118-.487-3.495.844-.118.487 3.495zm-6.824-1.543 7.378-1.03c.371-.052.693-.008.965.132.271.14.489.34.651.602.163.261.266.547.309.856.034.245.043.447.025.608a2.26 2.26 0 0 1-.062.361l-.901-.167a5 5 0 0 0 .034-.22c.013-.09.01-.207-.01-.351-.046-.33-.162-.555-.349-.678-.186-.12-.439-.159-.76-.114l-7.141.997-.139-.996z" fill="#000"/></svg>