<svg width="82" height="84" fill="none" xmlns="http://www.w3.org/2000/svg"><g fill-rule="evenodd" clip-rule="evenodd" fill="#88A728"><path d="M42.88 39.82c1.22.986 1.369 2.727.33 3.888-5.344 5.97-9.851 15.125-10.753 22.582-.452 3.74.052 6.633 1.316 8.499 1.138 1.679 3.206 2.988 7.227 2.988 1.603 0 2.902 1.235 2.902 2.758s-1.3 2.758-2.902 2.758c-5.548 0-9.68-1.936-12.107-5.518-2.3-3.396-2.725-7.783-2.201-12.115 1.05-8.684 6.11-18.838 12.098-25.527 1.038-1.16 2.87-1.3 4.09-.314z"/><path d="M39.12 39.82c-1.22.986-1.369 2.727-.33 3.888 5.344 5.97 9.851 15.125 10.753 22.582.452 3.74-.052 6.633-1.316 8.499-1.138 1.679-3.206 2.988-7.227 2.988-1.603 0-2.902 1.235-2.902 2.758s1.3 2.758 2.902 2.758c5.548 0 9.68-1.936 12.107-5.518 2.3-3.396 2.725-7.783 2.201-12.115-1.05-8.684-6.11-18.838-12.098-25.527-1.038-1.16-2.87-1.3-4.09-.314zM16.764 1.205c1.22.987 1.368 2.728.33 3.888-5.344 5.971-9.851 15.125-10.753 22.583-.452 3.74.052 6.632 1.316 8.498 1.137 1.68 3.206 2.988 7.227 2.988 1.602 0 2.902 1.235 2.902 2.758 0 1.524-1.3 2.759-2.902 2.759-5.548 0-9.68-1.936-12.107-5.519C.477 35.764.052 31.377.575 27.046 1.625 18.36 6.687 8.208 12.673 1.519c1.039-1.16 2.87-1.301 4.091-.314z"/><path d="M13.004 1.205c-1.221.987-1.369 2.728-.33 3.888 5.344 5.971 9.85 15.125 10.753 22.583.452 3.74-.052 6.632-1.316 8.498-1.138 1.68-3.207 2.988-7.227 2.988-1.603 0-2.902 1.235-2.902 2.758 0 1.524 1.3 2.759 2.902 2.759 5.548 0 9.68-1.936 12.106-5.519 2.301-3.396 2.726-7.783 2.202-12.114-1.05-8.685-6.111-18.838-12.098-25.527-1.038-1.16-2.87-1.301-4.09-.314zM68.996 1.205c1.221.987 1.369 2.728.33 3.888-5.344 5.971-9.85 15.125-10.752 22.583-.453 3.74.051 6.632 1.315 8.498 1.138 1.68 3.206 2.988 7.227 2.988 1.603 0 2.902 1.235 2.902 2.758 0 1.524-1.3 2.759-2.902 2.759-5.548 0-9.68-1.936-12.106-5.519-2.301-3.396-2.726-7.783-2.202-12.114 1.05-8.685 6.111-18.838 12.098-25.527 1.038-1.16 2.87-1.301 4.09-.314z"/><path d="M65.236 1.205c-1.22.987-1.368 2.728-.33 3.888 5.344 5.971 9.851 15.125 10.753 22.583.452 3.74-.052 6.632-1.316 8.498-1.137 1.68-3.206 2.988-7.227 2.988-1.602 0-2.902 1.235-2.902 2.758 0 1.524 1.3 2.759 2.902 2.759 5.548 0 9.68-1.936 12.107-5.519 2.3-3.396 2.725-7.783 2.202-12.114-1.05-8.685-6.112-18.838-12.099-25.527-1.038-1.16-2.87-1.301-4.09-.314z"/></g></svg>