<svg width="108" height="103" fill="none" xmlns="http://www.w3.org/2000/svg"><g opacity=".6" filter="url(#a)" fill-rule="evenodd" clip-rule="evenodd" fill="#fff"><path d="M34.809 41.168c2.45 2.388 3.957 5.867 3.957 10.213 0 1.427-1.137 2.584-2.54 2.584h-12.5c-1.402 0-2.538-1.157-2.538-2.584 0-1.426 1.136-2.583 2.539-2.583h9.683c-.395-1.71-1.177-2.985-2.113-3.897-1.308-1.274-3.06-1.979-4.882-2.058-2.65.092-4.513 1.017-5.752 2.241-1.203 1.26-2.113 3.156-2.203 5.853.078 1.855.77 3.637 2.023 4.968 1.3 1.381 3.349 2.432 6.369 2.432 1.402 0 2.539 1.157 2.539 2.584 0 1.426-1.137 2.583-2.54 2.583-4.271 0-7.69-1.532-10.037-4.026-1.972-2.097-3.08-4.76-3.365-7.474a2.632 2.632 0 0 1-.074-.623c0-.144.002-.287.005-.428a13.546 13.546 0 0 1-.005-.367c0-3.188 1.124-6.43 3.44-8.89.084-.09.17-.179.256-.266.086-.089.173-.176.261-.262 2.419-2.355 5.605-3.5 8.738-3.5.12 0 .24.002.36.006.14-.004.28-.005.422-.005.21 0 .415.026.611.075 2.668.29 5.285 1.418 7.346 3.424z"/><path d="M28.61 40.252c0 1.427-1.137 2.584-2.54 2.584-2.696 0-4.532 1.003-5.72 2.362-1.228 1.407-1.897 3.355-1.897 5.389 0 2.033.669 3.981 1.898 5.388 1.187 1.359 3.023 2.362 5.72 2.362 1.402 0 2.538 1.157 2.538 2.584 0 1.426-1.136 2.583-2.539 2.583-4.074 0-7.317-1.58-9.515-4.096-2.156-2.469-3.18-5.688-3.18-8.822 0-3.133 1.024-6.352 3.18-8.82 2.198-2.517 5.44-4.097 9.515-4.097 1.403 0 2.54 1.157 2.54 2.583z"/><path d="M28.61 40.252c0 1.427-1.137 2.584-2.54 2.584-2.696 0-4.532 1.003-5.72 2.362-1.228 1.407-1.897 3.355-1.897 5.389 0 2.033.669 3.981 1.898 5.388 1.187 1.359 3.023 2.362 5.72 2.362 1.402 0 2.538 1.157 2.538 2.584 0 1.426-1.136 2.583-2.539 2.583-4.074 0-7.317-1.58-9.515-4.096-2.156-2.469-3.18-5.688-3.18-8.822 0-3.133 1.024-6.352 3.18-8.82 2.198-2.517 5.44-4.097 9.515-4.097 1.403 0 2.54 1.157 2.54 2.583zM90.668 41.168c2.45 2.388 3.957 5.867 3.957 10.213 0 1.427-1.137 2.584-2.54 2.584-1.401 0-2.538-1.157-2.538-2.584 0-3.072-1.033-5.158-2.39-6.48-1.308-1.274-3.06-1.979-4.882-2.058-2.651.092-4.514 1.017-5.753 2.241-1.203 1.261-2.112 3.157-2.202 5.854.078 1.854.77 3.636 2.022 4.967 1.3 1.381 3.35 2.432 6.369 2.432 1.402 0 2.539 1.157 2.539 2.584 0 1.426-1.137 2.583-2.54 2.583-4.27 0-7.69-1.532-10.036-4.026-1.973-2.097-3.08-4.76-3.365-7.474a2.63 2.63 0 0 1-.075-.623c0-.143.002-.286.005-.428a13.557 13.557 0 0 1-.005-.367c0-3.188 1.125-6.43 3.44-8.89.084-.09.17-.178.256-.265.086-.09.173-.177.261-.263 2.419-2.355 5.605-3.5 8.739-3.5.12 0 .24.002.36.006.14-.004.28-.005.42-.005.212 0 .417.026.613.075 2.667.29 5.285 1.417 7.345 3.424z"/><path d="M84.469 40.252c0 1.427-1.137 2.584-2.54 2.584-2.696 0-4.532 1.003-5.719 2.362-1.229 1.407-1.897 3.355-1.897 5.389 0 2.033.668 3.981 1.897 5.388 1.188 1.359 3.023 2.362 5.72 2.362 1.402 0 2.539 1.157 2.539 2.584 0 1.426-1.137 2.583-2.54 2.583-4.074 0-7.316-1.58-9.514-4.096-2.157-2.469-3.18-5.688-3.18-8.822 0-3.133 1.023-6.352 3.18-8.82 2.198-2.517 5.44-4.097 9.515-4.097 1.402 0 2.539 1.157 2.539 2.583z"/><path d="M84.469 40.252c0 1.427-1.137 2.584-2.54 2.584-2.696 0-4.532 1.003-5.719 2.362-1.229 1.407-1.897 3.355-1.897 5.389 0 2.033.668 3.981 1.897 5.388 1.188 1.359 3.023 2.362 5.72 2.362 1.402 0 2.539 1.157 2.539 2.584 0 1.426-1.137 2.583-2.54 2.583-4.074 0-7.316-1.58-9.514-4.096-2.157-2.469-3.18-5.688-3.18-8.822 0-3.133 1.023-6.352 3.18-8.82 2.198-2.517 5.44-4.097 9.515-4.097 1.402 0 2.539 1.157 2.539 2.583z"/><path d="M73.192 60.005c-2.451-2.388-3.958-5.867-3.958-10.214 0-1.426 1.137-2.583 2.54-2.583 1.402 0 2.538 1.157 2.538 2.584 0 3.072 1.033 5.157 2.391 6.48 1.308 1.274 3.06 1.979 4.881 2.058 2.651-.092 4.514-1.017 5.754-2.241 1.202-1.261 2.112-3.157 2.202-5.854-.078-1.854-.77-3.636-2.023-4.967-1.3-1.381-3.349-2.432-6.369-2.432-1.402 0-2.539-1.157-2.539-2.584s1.137-2.583 2.54-2.583c4.271 0 7.69 1.533 10.037 4.026 1.972 2.097 3.08 4.76 3.365 7.474.048.2.074.408.074.623 0 .143-.002.286-.005.428.003.122.005.244.005.367 0 3.188-1.124 6.43-3.44 8.89-.084.09-.17.179-.256.266-.086.088-.173.176-.261.262-2.419 2.355-5.605 3.5-8.738 3.5-.12 0-.24-.003-.36-.006-.14.003-.28.005-.422.005-.21 0-.415-.026-.611-.075-2.668-.29-5.285-1.418-7.346-3.424z"/><path d="M79.39 60.92c0-1.426 1.137-2.583 2.54-2.583 2.696 0 4.532-1.003 5.72-2.362 1.228-1.407 1.897-3.355 1.897-5.389 0-2.033-.669-3.981-1.898-5.388-1.187-1.359-3.023-2.362-5.72-2.362-1.402 0-2.538-1.157-2.538-2.584s1.136-2.583 2.539-2.583c4.074 0 7.316 1.58 9.515 4.096 2.156 2.469 3.18 5.688 3.18 8.822 0 3.133-1.024 6.352-3.18 8.82-2.198 2.517-5.44 4.097-9.515 4.097-1.403 0-2.54-1.157-2.54-2.583z"/><path d="M79.39 60.92c0-1.426 1.137-2.583 2.54-2.583 2.696 0 4.532-1.003 5.72-2.362 1.228-1.407 1.897-3.355 1.897-5.389 0-2.033-.669-3.981-1.898-5.388-1.187-1.359-3.023-2.362-5.72-2.362-1.402 0-2.538-1.157-2.538-2.584s1.136-2.583 2.539-2.583c4.074 0 7.316 1.58 9.515 4.096 2.156 2.469 3.18 5.688 3.18 8.822 0 3.133-1.024 6.352-3.18 8.82-2.198 2.517-5.44 4.097-9.515 4.097-1.403 0-2.54-1.157-2.54-2.583zM53.634 37.64c3.392-.076 6.875 1.3 9.896 4.374a2.616 2.616 0 0 1 0 3.654 2.508 2.508 0 0 1-3.591 0c-2.136-2.173-4.315-2.904-6.194-2.862-1.81.04-3.538.802-4.882 2.057-1.81 1.972-2.485 3.967-2.51 5.723.025 1.757.7 3.752 2.51 5.724 1.343 1.255 3.072 2.017 4.882 2.057 1.88.042 4.059-.69 6.194-2.862a2.508 2.508 0 0 1 3.59 0 2.616 2.616 0 0 1 0 3.653c-3.02 3.074-6.503 4.45-9.895 4.375-2.851-.063-5.486-1.15-7.573-2.864a2.549 2.549 0 0 1-.485-.386c-.1-.102-.199-.204-.295-.307a13.486 13.486 0 0 1-.258-.255c-2.215-2.255-3.674-5.356-3.747-8.762a12.852 12.852 0 0 1-.002-.373c-.001-.124 0-.248.002-.372.073-3.406 1.532-6.507 3.747-8.762.085-.086.171-.171.258-.255.096-.103.195-.205.295-.307.149-.152.312-.28.485-.387 2.087-1.714 4.722-2.8 7.573-2.863z"/><path d="M48.613 41.453a2.616 2.616 0 0 1 0 3.654c-1.906 1.94-2.507 3.97-2.402 5.786.108 1.878.99 3.737 2.402 5.175 1.413 1.438 3.24 2.334 5.087 2.445 1.784.107 3.779-.505 5.686-2.445a2.508 2.508 0 0 1 3.59 0 2.616 2.616 0 0 1 0 3.654c-2.88 2.931-6.272 4.147-9.575 3.949-3.24-.194-6.2-1.733-8.379-3.95-2.177-2.215-3.69-5.228-3.88-8.525-.195-3.36 1-6.811 3.88-9.743a2.508 2.508 0 0 1 3.591 0z"/><path d="M48.613 41.453a2.616 2.616 0 0 1 0 3.654c-1.906 1.94-2.507 3.97-2.402 5.786.108 1.878.99 3.737 2.402 5.175 1.413 1.438 3.24 2.334 5.087 2.445 1.784.107 3.779-.505 5.686-2.445a2.508 2.508 0 0 1 3.59 0 2.616 2.616 0 0 1 0 3.654c-2.88 2.931-6.272 4.147-9.575 3.949-3.24-.194-6.2-1.733-8.379-3.95-2.177-2.215-3.69-5.228-3.88-8.525-.195-3.36 1-6.811 3.88-9.743a2.508 2.508 0 0 1 3.591 0z"/></g><path fill-rule="evenodd" clip-rule="evenodd" d="M32.809 41.01c2.45 2.387 3.957 5.866 3.957 10.212 0 1.427-1.137 2.584-2.54 2.584h-12.5c-1.402 0-2.538-1.157-2.538-2.584s1.136-2.583 2.539-2.583h9.683c-.395-1.71-1.177-2.985-2.113-3.897-1.308-1.274-3.06-1.979-4.882-2.058-2.65.092-4.513 1.017-5.752 2.24-1.203 1.262-2.113 3.157-2.203 5.854.078 1.855.77 3.637 2.023 4.968 1.3 1.381 3.349 2.432 6.369 2.432 1.402 0 2.539 1.157 2.539 2.584 0 1.426-1.137 2.583-2.54 2.583-4.271 0-7.69-1.533-10.037-4.026-1.972-2.097-3.08-4.76-3.365-7.474a2.631 2.631 0 0 1-.074-.623c0-.144.002-.287.005-.429a13.535 13.535 0 0 1-.005-.366c0-3.188 1.124-6.43 3.44-8.89.084-.09.17-.179.257-.266.085-.089.172-.176.26-.262 2.419-2.355 5.605-3.5 8.738-3.5.12 0 .24.002.36.006.14-.004.28-.005.422-.005.21 0 .415.026.611.075 2.668.29 5.285 1.417 7.346 3.424z" fill="#fff"/><path fill-rule="evenodd" clip-rule="evenodd" d="M26.61 40.093c0 1.427-1.137 2.584-2.54 2.584-2.696 0-4.532 1.003-5.72 2.362-1.228 1.407-1.897 3.355-1.897 5.388 0 2.034.669 3.982 1.898 5.389 1.187 1.359 3.023 2.362 5.72 2.362 1.402 0 2.538 1.157 2.538 2.584 0 1.426-1.136 2.583-2.539 2.583-4.074 0-7.317-1.58-9.515-4.096-2.156-2.47-3.18-5.688-3.18-8.822 0-3.134 1.024-6.352 3.18-8.82 2.198-2.517 5.44-4.097 9.515-4.097 1.403 0 2.54 1.157 2.54 2.583z" fill="#fff"/><path fill-rule="evenodd" clip-rule="evenodd" d="M26.61 40.093c0 1.427-1.137 2.584-2.54 2.584-2.696 0-4.532 1.003-5.72 2.362-1.228 1.407-1.897 3.355-1.897 5.388 0 2.034.669 3.982 1.898 5.389 1.187 1.359 3.023 2.362 5.72 2.362 1.402 0 2.538 1.157 2.538 2.584 0 1.426-1.136 2.583-2.539 2.583-4.074 0-7.317-1.58-9.515-4.096-2.156-2.47-3.18-5.688-3.18-8.822 0-3.134 1.024-6.352 3.18-8.82 2.198-2.517 5.44-4.097 9.515-4.097 1.403 0 2.54 1.157 2.54 2.583zM88.668 41.01c2.45 2.387 3.957 5.866 3.957 10.212 0 1.427-1.137 2.584-2.54 2.584-1.401 0-2.538-1.157-2.538-2.584 0-3.072-1.033-5.158-2.39-6.48-1.308-1.274-3.06-1.979-4.882-2.058-2.651.092-4.514 1.017-5.753 2.241-1.203 1.261-2.112 3.157-2.202 5.854.078 1.854.77 3.636 2.022 4.967 1.3 1.381 3.35 2.432 6.369 2.432 1.402 0 2.539 1.157 2.539 2.584 0 1.426-1.137 2.583-2.54 2.583-4.27 0-7.69-1.533-10.036-4.026-1.973-2.097-3.08-4.76-3.365-7.474a2.63 2.63 0 0 1-.075-.623c0-.144.002-.286.005-.428a13.555 13.555 0 0 1-.005-.366c0-3.189 1.125-6.431 3.44-8.892.084-.09.17-.178.256-.265.086-.088.173-.176.261-.262 2.419-2.355 5.605-3.5 8.739-3.5.12 0 .24.002.36.006.14-.004.28-.005.42-.005.212 0 .417.026.613.075 2.667.29 5.285 1.417 7.345 3.424z" fill="#fff"/><path fill-rule="evenodd" clip-rule="evenodd" d="M82.469 40.093c0 1.427-1.137 2.584-2.54 2.584-2.696 0-4.532 1.003-5.719 2.362-1.229 1.407-1.897 3.355-1.897 5.388 0 2.034.668 3.982 1.897 5.389 1.188 1.359 3.023 2.362 5.72 2.362 1.402 0 2.539 1.157 2.539 2.584 0 1.426-1.137 2.583-2.54 2.583-4.074 0-7.316-1.58-9.514-4.096-2.157-2.47-3.18-5.688-3.18-8.822 0-3.134 1.023-6.352 3.18-8.82 2.198-2.517 5.44-4.097 9.515-4.097 1.402 0 2.539 1.157 2.539 2.583z" fill="#fff"/><path fill-rule="evenodd" clip-rule="evenodd" d="M82.469 40.093c0 1.427-1.137 2.584-2.54 2.584-2.696 0-4.532 1.003-5.719 2.362-1.229 1.407-1.897 3.355-1.897 5.388 0 2.034.668 3.982 1.897 5.389 1.188 1.359 3.023 2.362 5.72 2.362 1.402 0 2.539 1.157 2.539 2.584 0 1.426-1.137 2.583-2.54 2.583-4.074 0-7.316-1.58-9.514-4.096-2.157-2.47-3.18-5.688-3.18-8.822 0-3.134 1.023-6.352 3.18-8.82 2.198-2.517 5.44-4.097 9.515-4.097 1.402 0 2.539 1.157 2.539 2.583z" fill="#fff"/><path fill-rule="evenodd" clip-rule="evenodd" d="M71.192 59.846c-2.451-2.388-3.958-5.867-3.958-10.213 0-1.427 1.137-2.584 2.54-2.584 1.402 0 2.538 1.157 2.538 2.584 0 3.072 1.033 5.157 2.391 6.48 1.308 1.274 3.06 1.978 4.881 2.057 2.651-.091 4.514-1.017 5.754-2.24 1.202-1.261 2.112-3.157 2.202-5.854-.078-1.854-.77-3.636-2.023-4.967-1.3-1.381-3.349-2.432-6.369-2.432-1.402 0-2.539-1.157-2.539-2.584s1.137-2.583 2.54-2.583c4.271 0 7.69 1.532 10.037 4.026 1.972 2.096 3.08 4.76 3.365 7.474.048.2.074.408.074.623 0 .143-.002.286-.005.428.003.122.005.244.005.366 0 3.189-1.124 6.43-3.44 8.892-.084.09-.17.177-.256.264-.086.09-.173.177-.261.263-2.419 2.355-5.605 3.5-8.738 3.5-.12 0-.24-.003-.36-.006-.14.003-.28.005-.422.005-.21 0-.415-.026-.611-.075-2.668-.29-5.285-1.418-7.346-3.424z" fill="#fff"/><path fill-rule="evenodd" clip-rule="evenodd" d="M77.39 60.762c0-1.427 1.137-2.584 2.54-2.584 2.696 0 4.532-1.003 5.72-2.362 1.228-1.407 1.897-3.355 1.897-5.389 0-2.033-.669-3.981-1.898-5.388-1.187-1.359-3.023-2.362-5.72-2.362-1.402 0-2.538-1.157-2.538-2.584s1.136-2.583 2.539-2.583c4.074 0 7.316 1.58 9.515 4.096 2.156 2.469 3.18 5.687 3.18 8.821 0 3.134-1.024 6.353-3.18 8.822-2.198 2.516-5.44 4.096-9.515 4.096-1.403 0-2.54-1.157-2.54-2.583z" fill="#fff"/><path fill-rule="evenodd" clip-rule="evenodd" d="M77.39 60.762c0-1.427 1.137-2.584 2.54-2.584 2.696 0 4.532-1.003 5.72-2.362 1.228-1.407 1.897-3.355 1.897-5.389 0-2.033-.669-3.981-1.898-5.388-1.187-1.359-3.023-2.362-5.72-2.362-1.402 0-2.538-1.157-2.538-2.584s1.136-2.583 2.539-2.583c4.074 0 7.316 1.58 9.515 4.096 2.156 2.469 3.18 5.687 3.18 8.821 0 3.134-1.024 6.353-3.18 8.822-2.198 2.516-5.44 4.096-9.515 4.096-1.403 0-2.54-1.157-2.54-2.583zM51.634 37.48c3.392-.075 6.875 1.302 9.896 4.375a2.616 2.616 0 0 1 0 3.654 2.508 2.508 0 0 1-3.591 0c-2.136-2.173-4.315-2.904-6.194-2.862-1.81.04-3.538.802-4.882 2.057-1.81 1.972-2.485 3.967-2.51 5.723.025 1.757.7 3.752 2.51 5.724 1.343 1.255 3.072 2.017 4.882 2.057 1.88.042 4.059-.69 6.194-2.862a2.508 2.508 0 0 1 3.59 0 2.615 2.615 0 0 1 0 3.653c-3.02 3.074-6.503 4.45-9.895 4.375-2.851-.063-5.486-1.15-7.573-2.864a2.553 2.553 0 0 1-.485-.386c-.1-.102-.199-.204-.295-.307a13.491 13.491 0 0 1-.258-.255c-2.215-2.255-3.674-5.356-3.747-8.762a12.842 12.842 0 0 1-.002-.373c-.001-.124 0-.248.002-.372.073-3.406 1.532-6.507 3.747-8.762.085-.086.171-.171.258-.255.096-.103.195-.205.295-.307.149-.152.312-.28.485-.387 2.087-1.714 4.722-2.8 7.573-2.863z" fill="#fff"/><path fill-rule="evenodd" clip-rule="evenodd" d="M46.613 41.294a2.616 2.616 0 0 1 0 3.654c-1.906 1.94-2.507 3.97-2.402 5.785.108 1.88.99 3.739 2.402 5.176 1.413 1.438 3.24 2.334 5.087 2.445 1.784.107 3.779-.505 5.686-2.445a2.508 2.508 0 0 1 3.59 0 2.616 2.616 0 0 1 0 3.654c-2.88 2.931-6.272 4.147-9.575 3.949-3.24-.194-6.2-1.733-8.379-3.95-2.177-2.215-3.69-5.228-3.88-8.525-.195-3.36 1-6.811 3.88-9.743a2.508 2.508 0 0 1 3.591 0z" fill="#fff"/><path fill-rule="evenodd" clip-rule="evenodd" d="M46.613 41.294a2.616 2.616 0 0 1 0 3.654c-1.906 1.94-2.507 3.97-2.402 5.785.108 1.88.99 3.739 2.402 5.176 1.413 1.438 3.24 2.334 5.087 2.445 1.784.107 3.779-.505 5.686-2.445a2.508 2.508 0 0 1 3.59 0 2.616 2.616 0 0 1 0 3.654c-2.88 2.931-6.272 4.147-9.575 3.949-3.24-.194-6.2-1.733-8.379-3.95-2.177-2.215-3.69-5.228-3.88-8.525-.195-3.36 1-6.811 3.88-9.743a2.508 2.508 0 0 1 3.591 0z" fill="#fff"/><defs><filter id="a" x="-9" y="-12.479" width="126" height="127.752" filterUnits="userSpaceOnUse" color-interpolation-filters="sRGB"><feFlood flood-opacity="0" result="BackgroundImageFix"/><feBlend in="SourceGraphic" in2="BackgroundImageFix" result="shape"/><feGaussianBlur stdDeviation="6.5" result="effect1_foregroundBlur_2729_1916"/></filter></defs></svg>