<svg xmlns="http://www.w3.org/2000/svg" width="97" height="31" viewBox="0 0 97 31" fill="none">
<path fill-rule="evenodd" clip-rule="evenodd" d="M25.354 4.13848C28.246 6.90684 30.0234 10.9417 30.0234 15.9825C30.0234 17.6372 28.682 18.9786 27.0273 18.9786H12.2773C10.6226 18.9786 9.28125 17.6372 9.28125 15.9825C9.28125 14.3278 10.6226 12.9864 12.2773 12.9864H23.7037C23.2374 11.0025 22.3151 9.52455 21.2104 8.46708C19.6672 6.98981 17.6001 6.17258 15.4499 6.08097C12.3221 6.18723 10.124 7.26045 8.66177 8.67939C7.24282 10.1416 6.16961 12.3397 6.06334 15.4675C6.15496 17.6177 6.97219 19.6848 8.44946 21.228C9.98318 22.8302 12.4014 24.0489 15.9648 24.0489C17.6195 24.0489 18.9609 25.3903 18.9609 27.045C18.9609 28.6997 17.6195 30.0411 15.9648 30.0411C15.74 30.0411 15.5171 30.0375 15.2962 30.0305C15.2127 30.0375 15.1283 30.0411 15.043 30.0411C10.2352 30.0411 6.40916 28.2083 3.81538 25.2903C1.64512 22.8488 0.447038 19.7748 0.141406 16.6685C0.0897969 16.4482 0.0625 16.2185 0.0625 15.9825C0.0625 15.8178 0.0643965 15.6543 0.0681656 15.4918C0.0643859 15.3479 0.0625 15.2042 0.0625 15.0606C0.0625 14.8334 0.0672192 14.6059 0.076689 14.3782C0.218736 10.963 1.42966 7.51477 3.81538 4.83084C6.40916 1.91284 10.2352 0.0801239 15.043 0.0801239C15.1844 0.0801239 15.3259 0.082064 15.4674 0.0859483C15.6321 0.0820738 15.7979 0.0801239 15.9648 0.0801239C16.2137 0.0801239 16.4556 0.110475 16.6868 0.167677C19.8342 0.503891 22.9229 1.81126 25.354 4.13848Z" fill="#88A728"/>
<path fill-rule="evenodd" clip-rule="evenodd" d="M81.1533 6.02925C77.9715 6.02925 75.8054 7.19263 74.4043 8.76877C72.9543 10.4001 72.165 12.6598 72.165 15.0175C72.165 17.3752 72.9543 19.635 74.4043 21.2663C75.8054 22.8424 77.9715 24.0058 81.1533 24.0058C84.3351 24.0058 86.5013 22.8424 87.9023 21.2663C89.3523 19.635 90.1416 17.3752 90.1416 15.0175C90.1416 12.6598 89.3523 10.4001 87.9023 8.76877C86.5013 7.19263 84.3351 6.02925 81.1533 6.02925ZM81.1533 29.998C76.3455 29.998 72.5195 28.1653 69.9257 25.2473C67.381 22.3844 66.1729 18.652 66.1729 15.0175C66.1729 11.3831 67.381 7.65063 69.9257 4.78778C72.5195 1.86978 76.3455 0.0370636 81.1533 0.0370636C85.9611 0.0370636 89.7871 1.86978 92.3809 4.78778C94.9257 7.65064 96.1338 11.3831 96.1338 15.0175C96.1338 18.652 94.9257 22.3844 92.3809 25.2473C89.7871 28.1653 85.9611 29.998 81.1533 29.998Z" fill="black"/>
<path fill-rule="evenodd" clip-rule="evenodd" d="M59.4411 5.07659C55.8768 1.51223 51.7669 -0.083992 47.7644 0.00339703C44.3998 0.076861 41.2913 1.33646 38.828 3.32429C38.624 3.44734 38.4316 3.59687 38.2556 3.77287C38.1375 3.8909 38.0217 4.00954 37.9079 4.12875C37.8051 4.22607 37.7037 4.32475 37.6037 4.42473C37.5811 4.44732 37.5586 4.46998 37.5361 4.49272C34.1855 7.87764 32.7962 11.8516 33.0239 15.7231C33.2453 19.4866 34.9779 22.9301 37.4828 25.4881C37.5229 25.5291 37.5632 25.5698 37.6037 25.6103C37.6441 25.6507 37.6847 25.6909 37.7256 25.7309C37.7872 25.7912 37.8493 25.851 37.9119 25.9104C38.0243 26.0282 38.1389 26.1455 38.2556 26.2622C38.4226 26.4292 38.6044 26.5723 38.7968 26.6917C41.2093 28.6719 44.2301 29.9983 47.491 30.1902C51.3884 30.4194 55.3897 29.0099 58.7894 25.6103C58.8498 25.5499 58.9071 25.4875 58.9613 25.4234C59.1223 25.2723 59.2823 25.1173 59.4411 24.9584C60.6112 23.7884 60.6112 21.8914 59.4411 20.7213C58.2711 19.5513 56.3741 19.5513 55.204 20.7213C52.6843 23.241 50.1126 24.0893 47.8952 24.0409C45.7594 23.9943 43.7199 23.1105 42.1347 21.6548C39.9981 19.368 39.2027 17.0548 39.1721 15.0175C39.2027 12.9802 39.9981 10.667 42.1347 8.38023C43.7199 6.92459 45.7594 6.04079 47.8952 5.99416C50.1126 5.94574 52.6843 6.79401 55.204 9.31371C56.3741 10.4838 58.2711 10.4838 59.4411 9.31371C60.6112 8.14366 60.6112 6.24664 59.4411 5.07659Z" fill="black"/>
</svg>