<svg xmlns="http://www.w3.org/2000/svg" width="82" height="84" viewBox="0 0 82 84" fill="none">
<path fill-rule="evenodd" clip-rule="evenodd" d="M25.4243 33.5459C26.537 32.5099 28.3409 32.5099 29.4535 33.5459C29.869 33.9327 30.2758 34.311 30.6742 34.6813C38.2877 41.76 42.7963 45.9518 45.0797 51.9044C46.281 55.0363 46.8372 58.5423 47.1108 63.0247C47.3825 67.4768 47.3825 73.0761 47.3825 80.4297V80.517C47.3825 81.982 46.1069 83.1696 44.5334 83.1696C42.9599 83.1696 41.6843 81.982 41.6843 80.517C41.6843 73.0586 41.6832 67.6096 41.4218 63.3256C41.1611 59.0542 40.6489 56.1275 39.7135 53.6888C37.8707 48.8846 34.2723 45.5346 25.8136 37.6598C25.685 37.54 25.5552 37.4192 25.4243 37.2973C24.3117 36.2614 24.3117 34.5818 25.4243 33.5459Z" fill="#212420"/>
<path fill-rule="evenodd" clip-rule="evenodd" d="M61.2889 20.9031C62.0335 22.1937 61.5135 23.8019 60.1273 24.4953C57.7326 25.693 54.5939 27.9867 52.0045 35.7998C49.3614 43.7751 47.3827 57.2566 47.3827 80.5172C47.3827 81.9822 46.1071 83.1698 44.5336 83.1698C42.9601 83.1698 41.6846 81.9822 41.6846 80.5172C41.6846 57.0907 43.6629 42.9763 46.5597 34.2356C49.5102 25.3328 53.4942 21.7906 57.4307 19.8216C58.8169 19.1283 60.5442 19.6125 61.2889 20.9031Z" fill="#212420"/>
<path fill-rule="evenodd" clip-rule="evenodd" d="M52.3674 12.8613C46.1538 17.7424 42.592 24.0434 41.6143 28.0512C41.2658 29.4799 39.7394 30.375 38.205 30.0505C36.6706 29.726 35.7092 28.3048 36.0577 26.8761C37.3247 21.6824 41.585 14.39 48.693 8.80641C55.8972 3.14716 66.1092 -0.81498 79.1368 0.965114C80.6936 1.17784 81.7705 2.52534 81.542 3.97484C81.3135 5.42435 79.8662 6.42695 78.3094 6.21423C67.094 4.68175 58.4848 8.05582 52.3674 12.8613Z" fill="#88A728"/>
<path fill-rule="evenodd" clip-rule="evenodd" d="M78.0304 0.965718C79.5868 0.749834 81.0364 1.7495 81.2682 3.19854C82.1956 8.99388 81.3308 16.6903 78.4519 23.5246C75.581 30.3395 70.4796 36.7946 62.5309 39.2641C61.0383 39.7278 59.4246 38.9771 58.9266 37.5874C58.4285 36.1977 59.2348 34.6952 60.7274 34.2315C66.4402 32.4567 70.5983 27.6379 73.1471 21.5874C75.6878 15.5563 76.4028 8.79566 75.6323 3.98032C75.4004 2.53129 76.4741 1.1816 78.0304 0.965718Z" fill="#88A728"/>
<path fill-rule="evenodd" clip-rule="evenodd" d="M27.3879 18.9962C31.3265 20.8179 33.6858 24.3061 36.2963 28.4571C37.1054 29.7437 38.8859 30.273 40.2732 29.6393C41.6604 29.0057 42.129 27.449 41.3199 26.1624L41.2934 26.1203C38.8316 22.2057 35.6436 17.1363 29.7687 14.419C23.7115 11.6174 15.6709 11.643 4.23709 15.7963C2.78831 16.3226 2.17556 17.8307 2.86847 19.1649C3.56138 20.499 5.29756 21.1539 6.74634 20.6277C17.5308 16.7102 23.6104 17.2491 27.3879 18.9962Z" fill="#88A728"/>
<path fill-rule="evenodd" clip-rule="evenodd" d="M4.84677 15.4066C3.26901 15.5744 2.23289 16.8651 2.53252 18.2894C2.64829 18.8397 2.77311 19.4599 2.90973 20.1387C3.82699 24.696 5.27619 31.8961 8.08912 38.3489C11.2409 45.579 16.7355 53.2753 26.5115 53.9271C28.1174 54.0342 29.4249 52.9616 29.4319 51.5314C29.4389 50.1013 28.1427 48.8551 26.5367 48.748C20.6899 48.3581 16.5391 43.7611 13.4902 36.767C10.9148 30.8591 9.57687 24.2406 8.64673 19.6393C8.50465 18.9365 8.37208 18.2807 8.24607 17.6817C7.94644 16.2573 6.42452 15.2387 4.84677 15.4066Z" fill="#88A728"/>
</svg>