<svg width="109" height="50" fill="none" xmlns="http://www.w3.org/2000/svg"><g fill="#55565A"><path fill-rule="evenodd" clip-rule="evenodd" d="M20.879 36.737h3.985v-7.83h.054c.901 1.249 2.442 1.7 4.088 1.7 3.666 0 5.899-3.294 5.899-6.878 0-3.908-2.524-6.669-6.35-6.669-1.806 0-3.346 1.09-3.957 2.02h-.053v-1.7h-3.666v19.357zm3.666-12.905c0-1.938 1.193-3.265 3.187-3.265 1.991 0 3.187 1.327 3.187 3.265 0 1.94-1.196 3.268-3.187 3.268-1.994 0-3.187-1.327-3.187-3.268z"/><path d="M36.248 30.288h3.986v-5.392c0-2.576.369-4.33 3.4-4.33.582 0 1.14.107 1.7.267v-3.641c-.373-.107-.877-.132-1.331-.132-1.753 0-2.868.823-3.72 2.392h-.05v-2.073h-3.985v12.909z"/><path fill-rule="evenodd" clip-rule="evenodd" d="M45.675 23.832c0 4.12 3.187 6.775 7.172 6.775 3.986 0 7.173-2.655 7.173-6.775 0-4.117-3.187-6.772-7.173-6.772-3.985 0-7.172 2.655-7.172 6.772zm3.985 0c0-1.938 1.196-3.265 3.187-3.265 1.995 0 3.187 1.327 3.187 3.265 0 1.94-1.192 3.268-3.187 3.268-1.99 0-3.187-1.327-3.187-3.268zM75.135 10.927h-3.982v7.833H71.1c-.905-1.25-2.445-1.7-4.092-1.7-3.666 0-5.899 3.293-5.899 6.878 0 3.907 2.524 6.669 6.35 6.669 1.806 0 3.346-1.09 3.957-2.02h.056v1.7h3.663v-19.36zm-3.663 12.908c0 1.938-1.196 3.265-3.19 3.265-1.991 0-3.187-1.327-3.187-3.265 0-1.941 1.196-3.269 3.187-3.269 1.994 0 3.19 1.328 3.19 3.269zM77.383 30.287h3.982V17.38h-3.982v12.908zm-.32-16.975a2.314 2.314 0 0 0 2.311 2.314 2.313 2.313 0 0 0 0-4.624 2.313 2.313 0 0 0-2.31 2.31z"/><path d="M83.767 30.288h3.985v-5.392c0-2.576.373-4.33 3.4-4.33.582 0 1.143.107 1.697.267v-3.641c-.37-.107-.874-.132-1.328-.132-1.753 0-2.867.823-3.719 2.392h-.05v-2.073h-3.985v12.909z"/><path fill-rule="evenodd" clip-rule="evenodd" d="M94.022 29.699h.41V28.44h.523l.805 1.259h.441l-.845-1.293c.438-.047.776-.272.776-.798 0-.586-.331-.843-1.033-.843h-1.077V29.7zm.41-2.567h.633c.313 0 .66.047.66.457 0 .463-.381.482-.788.482h-.505v-.94zm-2.019 1.095c0 1.431 1.168 2.524 2.555 2.524a2.534 2.534 0 0 0 2.554-2.549c0-1.43-1.164-2.52-2.554-2.52-1.387 0-2.555 1.09-2.555 2.545zm.41 0c0-1.246.952-2.179 2.145-2.179s2.144.933 2.144 2.154c0 1.24-.951 2.18-2.144 2.18a2.128 2.128 0 0 1-2.145-2.155z"/></g></svg>