<svg width="146" height="38" fill="none" xmlns="http://www.w3.org/2000/svg"><g fill="#55565A"><path d="M0 19v19h146V0H0v19zM88.878 8.594c2.593.411 4.836 1.651 6.226 3.442.849 1.087 1.365 2.242 1.644 3.647.091.466.112.69.129 1.594.017.908.008 1.155-.07 1.808-.05.412-.084.756-.076.765.009.005.604.112 1.324.242 3.941.698 7.662 1.692 10.858 2.9.816.305 2.685 1.088 2.66 1.11-.009.01-.246-.053-.533-.138-11.004-3.268-26.582-4.404-40.704-2.968-5.756.582-11.445 1.647-15.898 2.968a6.034 6.034 0 0 1-.533.143c-.033-.036 1.948-.855 3.022-1.253 3.209-1.182 7.329-2.247 11.058-2.865.782-.13.74-.094.345-.3-.474-.246-.99-.626-1.194-.872a2.438 2.438 0 0 1-.283-.462c-.104-.223-.117-.3-.117-.698.004-.38.021-.492.113-.73.428-1.114 1.64-1.669 3.612-1.669 1.773 0 3.425.385 5.781 1.356 2.689 1.106 4.557 1.652 6.247 1.831.616.063 1.67.027 2.123-.072 1.065-.232 2.13-.85 2.788-1.62.3-.349.358-.29-.516-.546-2.476-.73-5.635-1.271-9.306-1.593-1.103-.094-2.822-.202-3.317-.202-.237 0-.429-.018-.429-.036 0-.098 2.402-.13 4.037-.053 3.459.156 6.718.564 9.481 1.186.379.085.704.156.72.156.063 0 .466-1.208.616-1.84.192-.81.287-1.548.33-2.501l.032-.694.059.269c.091.398.083 2.242-.013 2.945a9.119 9.119 0 0 1-.383 1.67c-.058.165-.1.304-.096.308.009.005.259.085.554.18 1.877.581 3.85 1.552 5.327 2.618.412.3.437.308.458.214l.067-.304c.083-.39.095-1.674.02-2.238-.432-3.2-2.205-5.425-5.173-6.485-2.376-.85-5.331-.82-7.483.09-1.182.496-2.61 1.584-4.004 3.056-.395.416-.72.743-.72.72 0-.08.404-.67.766-1.127 1.873-2.341 4.403-3.702 7.537-4.042.629-.067 2.248-.018 2.914.09zM39.492 26.318c.974.107 1.478.457 1.699 1.177.087.3.128 2.498.054 2.981-.1.65-.42 1.106-.912 1.307-.487.197-.878.228-2.98.206-1.669-.014-1.993-.027-2.222-.094-.554-.157-.95-.501-1.132-.994-.1-.26-.1-.286-.1-1.763 0-1.46.004-1.509.096-1.75.237-.631.757-.976 1.631-1.07.483-.05 3.396-.05 3.866 0zm35.601.058c.7.18 1.1.564 1.261 1.218.071.273.08 2.752.017 3.057-.141.649-.537 1.052-1.215 1.248-.22.063-.566.076-2.194.09-2.03.022-2.413 0-2.892-.17-.491-.175-.82-.533-.974-1.07-.058-.21-.07-.447-.07-1.566 0-1.146.008-1.361.078-1.62.188-.74.704-1.133 1.628-1.24.183-.023 1.178-.036 2.206-.027 1.531.009 1.922.022 2.155.08zm66.133 0c.762.193 1.07.609 1.07 1.441v.291h-1.665v-.13a.465.465 0 0 0-.1-.259l-.1-.125-1.344-.014c-1.411-.013-1.519 0-1.64.188-.075.108-.079.309-.016.439.104.21.241.228 1.993.26 1.769.035 2.098.071 2.493.29.242.13.35.255.47.537.088.206.096.287.096.963 0 .658-.008.76-.087.94-.167.38-.416.568-.932.694-.263.067-.616.08-2.161.098-2.48.031-2.888-.027-3.279-.461-.221-.246-.304-.528-.304-1.056v-.394l.82.009.82.013.033.197c.038.237.125.35.321.407.204.058 2.559.058 2.763-.004.242-.072.321-.18.321-.434 0-.434-.088-.452-2.081-.502-.883-.022-1.719-.058-1.865-.085-.591-.116-.924-.349-1.053-.747-.079-.237-.079-1.396 0-1.683.108-.407.458-.716.953-.841.429-.108.841-.126 2.506-.112 1.357.009 1.739.027 1.968.08zm-116.338.287c.05.17.304 1.078.57 2.027.263.95.483 1.728.492 1.737.004.004.312-.909.686-2.028l.683-2.036h1.552l.333.993c.188.55.491 1.464.683 2.037.191.573.35 1.034.354 1.03.008-.005.22-.757.474-1.666.254-.913.512-1.821.566-2.027l.104-.367H33.008l-.029.098c-.012.058-.408 1.312-.87 2.789l-.84 2.685-.929.014c-.516.004-.949-.01-.97-.032-.02-.022-.312-.85-.653-1.844l-.616-1.803-.058.152c-.033.085-.32.917-.637 1.844l-.574 1.692h-1.894l-.108-.327a837.526 837.526 0 0 1-1.648-5.255c0-.009.366-.013.811-.013h.808l.087.3zm23.565-.197c.275.116.545.39.653.658.18.452.213 1.432.063 1.933-.075.25-.3.484-.575.596l-.2.08.188.076c.283.117.429.246.537.484.083.188.096.286.108.935l.017.73H47.57l-.005-.484c0-.546-.05-.743-.216-.877-.112-.09-.17-.094-1.569-.108l-1.452-.013-.013.73-.012.73h-1.665l-.013-2.79-.008-2.788 2.818.014c2.61.013 2.838.022 3.017.094zm3.945 1.956v2.059h3.705V31.958h-5.369V26.363h1.664v2.059zm10.988-1.938c.533.197.828.487.986.966.067.206.075.403.075 1.71 0 1.45 0 1.482-.1 1.741-.183.497-.499.766-1.09.936-.346.098-.383.098-3.18.098h-2.83l-.012-2.788-.009-2.789 2.943.014c2.909.013 2.95.018 3.217.112zm20.06.55v.672h-3.995v1.029h3.787v1.298h-3.787V31.958h-1.665V26.363h5.66v.671zm11.32.023v.693h-2.33v4.208h-1.665V27.75h-2.33v-1.387h6.326v.694zm6.993-.045v.649h-4.245v.895h3.995v1.164h-3.995v.85h4.328v1.388h-5.993V26.363h5.91v.649zm4.041.232c.416.488.791.922.828.967.071.08.108.04.899-.881l.828-.963 1.083-.004h1.078l-.167.188c-.691.792-1.827 2.077-2.031 2.31l-.254.277 1.332 1.41 1.332 1.405h-2.248l-.874-1.002c-.478-.556-.886-1.008-.899-1.008-.012 0-.424.452-.907 1.008l-.886 1.007H102.695l1.32-1.42 1.319-1.414-1.207-1.356c-.662-.747-1.203-1.37-1.203-1.383 0-.013.475-.022 1.057-.022h1.057l.762.881zm11.816-.188v.694h-2.331l-.008 2.09-.013 2.095-.82.014-.824.009V27.75h-2.33v-1.387h6.326v.694zm2.822 2.09-.013 2.79-.82.013-.824.009V26.363h1.665l-.008 2.784zm3.213-.724v2.059l1.864.008 1.86.014v1.432h-5.368l-.013-2.788-.008-2.784h1.665v2.059zm10.696-1.41v.649h-4.246v.895h4.038v1.164h-4.038v.85l2.177.009 2.173.014v1.342l-3.005.014-3.009.009V26.363h5.91v.649z"/><path d="M88.02 17.057a3.995 3.995 0 0 1-1.765 1.647l-.278.126.699.031c1.814.08 4.174.255 5.739.43.412.044.753.076.762.067.016-.014-.945-.685-1.365-.949a18.778 18.778 0 0 0-2.955-1.513c-.263-.107-.508-.206-.546-.224-.05-.022-.12.072-.29.385zM70.79 16.852c-.662.12-1.144.335-1.436.64-.2.21-.266.394-.266.734.004.506.208.8.812 1.177.386.242.208.242 1.956.027a91.356 91.356 0 0 1 7.2-.578l.749-.031-.458-.103c-1.265-.286-2.917-.77-4.387-1.285-1.02-.353-1.531-.492-2.16-.581-.561-.08-1.569-.08-2.01 0zM36.113 27.804a.782.782 0 0 0-.3.197c-.196.21-.241.47-.22 1.316.012.595.024.716.095.846.2.367.387.407 1.869.407 1.552 0 1.735-.04 1.919-.43.075-.156.083-.264.083-.957 0-.72-.008-.802-.096-.99a.665.665 0 0 0-.27-.313c-.175-.107-.175-.107-1.549-.116-.845-.005-1.435.013-1.531.04zM71.236 27.817a.744.744 0 0 0-.45.493c-.033.107-.054.46-.054.895 0 .676.009.73.105.935.074.161.15.251.27.314.158.09.237.094 1.582.094 1.619 0 1.723-.018 1.902-.327.087-.152.095-.224.108-.931.016-.833-.017-1.052-.18-1.267-.199-.25-.349-.273-1.806-.273-1.007.005-1.352.018-1.477.067zM44.324 28.421v.676l1.511-.013c1.623-.014 1.623-.014 1.744-.255.07-.143.07-.676-.004-.82-.113-.228-.163-.237-1.76-.25l-1.49-.013v.675zM58.89 29.115v1.37l1.72-.013c1.64-.014 1.723-.018 1.86-.103.283-.18.312-.3.312-1.231 0-.958-.037-1.106-.337-1.271-.154-.09-.237-.094-1.856-.108l-1.698-.013v1.37z"/></g></svg>