<svg width="124" height="36" fill="none" xmlns="http://www.w3.org/2000/svg"><g fill-rule="evenodd" clip-rule="evenodd" fill="#55565A"><path d="M43.723 9.782h2.608v16.436h-2.608V9.782zM67.647 9.782h2.608v16.436h-2.608V9.782zM78.542 10.337h2.609v15.88h-2.609v-15.88z"/><path d="M71.76 12.433v-2.65h16.174v2.65H71.76zM89.44 9.782h2.608v16.436H89.44V9.782z"/><path d="M89.444 12.433v-2.65h14.438v2.65H89.444zM89.444 19.325v-2.65h14.438v2.65H89.444zM89.444 26.218v-2.651h14.438v2.65H89.444zM26.043 9.782h2.609v16.436h-2.609V9.782zM39.61 9.782h2.608v16.436H39.61V9.782z"/><path d="M26.274 19.325v-2.65h15.409v2.65H26.274zM63.533 9.782h2.609l-3.963 9.543H59.57l3.963-9.543z"/><path d="M63.533 26.218h2.609l-3.963-9.543H59.57l3.963 9.543zM47.836 9.782h2.609v16.436h-2.61V9.782z"/><path d="M47.954 19.325v-2.65H61.52v2.65H47.954zM107.406 9.782h12.419v2.688h-10.681c-.586 0-1.065.448-1.065.996v9.068c0 .548.479.996 1.065.996h10.681v2.688h-12.419c-1.112 0-2.022-.925-2.022-2.055V11.837c0-1.13.91-2.055 2.022-2.055zM8.902 15.651c1.78-6.63 13.525-9.743 13.94 3.978-1.601-6.148-7.355-11.512-13.94-3.978z"/><path d="M9.68 21.268C4.024 17.5 4.74 5.188 17.71 9.028c-6.248-.353-13.047 3.55-8.03 12.24z"/><path d="M16.19 22.415c-4.752 4.89-16.488 1.75-10.227-10.414-1.572 6.155.853 13.697 10.227 10.414z"/><path d="M18.323 16.91c2.82 6.246-4.228 16.288-13.206 6.03 5.11 3.674 12.91 4.04 13.206-6.03z"/><path d="M14.993 13.004c6.759.235 12.442 11.133-.603 14.7 5.519-2.998 9.333-9.922.603-14.7z"/></g></svg>