<svg width="99" height="44" fill="none" xmlns="http://www.w3.org/2000/svg"><g fill="#55565A"><path d="M9.558 32.089h.007l1.48-3.66h.688v4.422h-.45V29.01h-.013l-1.6 3.842h-.236l-1.6-3.842h-.012v3.842h-.45V28.43h.687l1.5 3.66zM14.541 31.39c-.692 0-1.499.075-1.499.63 0 .419.356.557.687.557.6 0 .937-.45.937-.969v-.218h-.125zm.124-.425c0-.506-.274-.755-.779-.755-.344 0-.663.136-.868.343l-.239-.282c.24-.237.65-.418 1.15-.418.63 0 1.137.35 1.137 1.063v1.279c0 .225.019.494.05.656h-.38a2.844 2.844 0 0 1-.045-.474h-.012c-.27.387-.593.55-1.062.55-.444 0-1.012-.238-1.012-.887 0-.9.993-.98 2.06-.98v-.095zM17.445 32.563c.655 0 1.124-.505 1.124-1.173 0-.669-.47-1.18-1.124-1.18-.706 0-1.105.53-1.105 1.18 0 .65.399 1.173 1.105 1.173zm-.044.363c-.913 0-1.511-.675-1.511-1.536s.598-1.537 1.51-1.537c.418 0 .857.2 1.106.58h.013V28.13h.425v4.722h-.425v-.492h-.013a1.347 1.347 0 0 1-1.105.567zM22.253 31.165c-.024-.55-.362-.955-.967-.955-.57 0-.988.455-1.025.955h1.992zm.426.337h-2.425c.014.587.469 1.061 1.07 1.061.436 0 .773-.242.935-.505l.32.25c-.345.438-.775.618-1.256.618-.868 0-1.512-.656-1.512-1.536 0-.882.644-1.537 1.475-1.537.917 0 1.398.65 1.398 1.448 0 .057 0 .126-.005.201zM25.476 32.851h-.424V29.93h.424v2.922zm-.213-3.748c-.15 0-.3-.124-.3-.298 0-.176.15-.3.3-.3s.3.124.3.3c0 .174-.15.298-.3.298zM26.931 29.928c.012.156.024.376.024.5h.014c.162-.338.586-.575 1-.575.74 0 1.111.481 1.111 1.206v1.792h-.425v-1.618c0-.61-.182-1.023-.793-1.023-.45 0-.886.361-.886 1.142v1.5h-.427v-2.28a8.05 8.05 0 0 0-.024-.644h.406zM35.005 29.222c-.308-.324-.732-.511-1.281-.511-1.136 0-1.837.899-1.837 1.929 0 1.031.701 1.923 1.837 1.923.5 0 .936-.117 1.194-.286v-1.342h-1.032v-.394h1.48v1.991a3.19 3.19 0 0 1-1.649.432c-1.337 0-2.304-.98-2.304-2.324 0-1.343.988-2.323 2.304-2.323.7 0 1.224.225 1.6.593l-.313.312zM38.663 31.165c-.024-.55-.362-.955-.969-.955-.568 0-.986.455-1.023.955h1.992zm.424.337h-2.423c.014.587.469 1.061 1.068 1.061.438 0 .776-.242.938-.505l.318.25c-.342.438-.774.618-1.256.618-.868 0-1.511-.656-1.511-1.536 0-.882.643-1.537 1.473-1.537.92 0 1.4.65 1.4 1.448 0 .057 0 .126-.007.201zM39.925 29.928h.406c.012.156.023.376.023.5h.014c.162-.338.524-.575.936-.575.106 0 .195.007.282.031l-.056.4a1.135 1.135 0 0 0-.3-.037c-.45 0-.855.324-.855 1.105v1.5h-.426v-2.28c0-.158-.005-.444-.024-.644zM43.521 29.853c.32 0 .706.118.9.618.2-.4.555-.618 1.024-.618.743 0 1.112.481 1.112 1.206v1.792h-.425v-1.618c0-.61-.206-1.023-.755-1.023-.612 0-.83.542-.83 1.086v1.555h-.425v-1.705c0-.568-.139-.936-.706-.936-.406 0-.85.361-.85 1.142v1.5h-.424v-2.28c0-.158-.007-.444-.026-.644h.406c.012.156.026.376.026.5h.012a1.08 1.08 0 0 1 .961-.575zM49.316 31.39c-.694 0-1.499.075-1.499.63 0 .419.357.557.688.557.6 0 .936-.45.936-.969v-.218h-.125zm.125-.425c0-.506-.275-.755-.78-.755-.344 0-.663.136-.867.343l-.24-.282c.24-.237.65-.418 1.15-.418.631 0 1.138.35 1.138 1.063v1.279c0 .225.018.494.05.656h-.381a2.844 2.844 0 0 1-.044-.474h-.012c-.27.387-.594.55-1.063.55-.443 0-1.011-.238-1.011-.887 0-.9.992-.98 2.06-.98v-.095zM51.257 29.928c.013.156.027.376.027.5h.012c.162-.338.587-.575 1-.575.741 0 1.111.481 1.111 1.206v1.792h-.426v-1.618c0-.61-.181-1.023-.793-1.023-.449 0-.887.361-.887 1.142v1.5h-.425v-2.28a8.88 8.88 0 0 0-.023-.644h.404zM55.455 32.396h.012l.905-2.467h.462l-1.456 3.678c-.174.45-.411.743-.918.743a2.06 2.06 0 0 1-.38-.037l.043-.387c.094.03.2.05.314.05.286 0 .436-.188.56-.52l.238-.611-1.249-2.916h.474l.995 2.467zM57.466 32.888a.335.335 0 0 1-.338-.337c0-.176.136-.338.338-.338.2 0 .335.162.335.338a.335.335 0 0 1-.335.337zM62.267 29.14c-.188-.267-.493-.443-.91-.443-.439 0-.944.263-.944.832 0 .561.468.706.962.868.624.207 1.312.406 1.312 1.293 0 .887-.744 1.274-1.443 1.274-.537 0-1.075-.218-1.393-.657l.387-.286c.194.312.549.556 1.01.556.458 0 .982-.288.982-.856 0-.62-.517-.774-1.08-.95-.587-.18-1.187-.437-1.187-1.236 0-.857.762-1.218 1.412-1.218.592 0 1.037.25 1.248.537l-.356.287zM63.998 32.851h-.427V29.93h.427v2.922zm-.213-3.748c-.15 0-.3-.124-.3-.298 0-.176.15-.3.3-.3s.3.124.3.3c0 .174-.15.298-.3.298zM65.45 29.928c.013.156.025.376.025.5h.014c.162-.338.587-.575.998-.575.743 0 1.112.481 1.112 1.206v1.792h-.425v-1.618c0-.61-.18-1.023-.793-1.023-.449 0-.887.361-.887 1.142v1.5h-.424v-2.28c0-.158-.007-.444-.026-.644h.406zM70.747 30.597c-.138-.225-.431-.387-.75-.387-.68 0-1.117.511-1.117 1.18 0 .662.431 1.175 1.112 1.175a.943.943 0 0 0 .793-.382l.319.237c-.251.307-.608.506-1.112.506-.943 0-1.562-.654-1.562-1.536 0-.88.619-1.537 1.562-1.537.394 0 .837.17 1.086.507l-.33.237zM73.937 31.165c-.025-.55-.361-.955-.968-.955-.568 0-.986.455-1.024.955h1.992zm.425.337h-2.423c.011.587.469 1.061 1.067 1.061.438 0 .776-.242.938-.505l.317.25c-.343.438-.772.618-1.255.618-.868 0-1.51-.656-1.51-1.536 0-.882.642-1.537 1.473-1.537.919 0 1.4.65 1.4 1.448 0 .057 0 .126-.007.201zM78.402 32.851h-.449v-3.866l-.8.68-.274-.311 1.124-.925h.399v4.422zM81.555 28.697c-.58 0-.987.438-.987 1.013 0 .568.382 1 .987 1 .607 0 .987-.432.987-1 0-.575-.406-1.013-.987-1.013zm.556 2.224-.012-.012c-.131.099-.406.162-.631.162-.77 0-1.349-.556-1.349-1.36 0-.826.606-1.394 1.436-1.394s1.436.568 1.436 1.393c0 .456-.18.843-.4 1.199l-1.205 1.942h-.518l1.243-1.93zM86.444 32.851h-2.829v-.469l1.811-1.83c.27-.274.532-.605.532-1.01 0-.514-.4-.845-.874-.845-.475 0-.819.331-.913.788l-.443-.087c.124-.626.661-1.081 1.356-1.081.712 0 1.33.413 1.33 1.218 0 .567-.331.95-.718 1.337l-1.593 1.579h2.341v.4zM87.68 30.646c0 .882.207 1.93.993 1.93.776 0 .994-1.048.994-1.93 0-.88-.218-1.949-.994-1.949-.786 0-.992 1.07-.992 1.95zm2.443 0c0 1.15-.35 2.318-1.45 2.318-1.112 0-1.45-1.168-1.45-2.318 0-1.149.338-2.33 1.45-2.33 1.1 0 1.45 1.181 1.45 2.33zM91.24 32.888a.335.335 0 0 1-.337-.337.336.336 0 1 1 .674 0 .336.336 0 0 1-.338.337zM15.485 14.82a4.651 4.651 0 0 0-1.213-.825 3.35 3.35 0 0 0-1.47-.335c-.397 0-.762.076-1.098.231-.336.156-.503.423-.503.802 0 .36.184.619.554.772.37.156.969.328 1.794.517.483.104.969.25 1.458.44.491.19.935.438 1.33.747.396.31.715.689.955 1.136.24.448.362.98.362 1.601 0 .808-.164 1.492-.491 2.052a4.01 4.01 0 0 1-1.277 1.355 5.508 5.508 0 0 1-1.769.749 8.556 8.556 0 0 1-1.961.232 9.688 9.688 0 0 1-3.085-.503c-1.006-.336-1.845-.83-2.515-1.486l2.373-2.503c.379.414.843.757 1.395 1.034.55.274 1.135.412 1.755.412.343 0 .684-.082 1.018-.245.336-.164.505-.452.505-.865 0-.396-.206-.689-.62-.878-.413-.188-1.058-.387-1.936-.594a9.849 9.849 0 0 1-1.342-.412 4.26 4.26 0 0 1-1.2-.698 3.448 3.448 0 0 1-.865-1.083c-.224-.43-.335-.946-.335-1.548 0-.774.162-1.433.49-1.975a4.16 4.16 0 0 1 1.265-1.33 5.665 5.665 0 0 1 1.716-.76 7.394 7.394 0 0 1 1.872-.246c.964 0 1.905.15 2.826.452.92.3 1.698.753 2.336 1.354l-2.324 2.4zM27.41 15.982c0-.67-.212-1.246-.633-1.73-.421-.48-1.054-.722-1.896-.722-.415 0-.793.065-1.136.194a2.95 2.95 0 0 0-.904.529 2.62 2.62 0 0 0-.619.788c-.155.3-.242.615-.259.941h5.447zm3.896 1.627v.515c0 .174-.008.336-.025.491h-9.318c.036.362.143.69.324.98.18.294.413.548.696.763a3.403 3.403 0 0 0 2.053.684c.67 0 1.238-.125 1.702-.375a3.345 3.345 0 0 0 1.136-.967l2.943 1.858a5.95 5.95 0 0 1-2.387 2.025c-.991.474-2.139.71-3.447.71a8.238 8.238 0 0 1-2.735-.451 6.639 6.639 0 0 1-2.258-1.317 6.055 6.055 0 0 1-1.523-2.13c-.37-.842-.556-1.805-.556-2.89 0-1.049.18-2 .542-2.851a6.445 6.445 0 0 1 1.472-2.17 6.538 6.538 0 0 1 2.193-1.38 7.488 7.488 0 0 1 2.736-.49c.946 0 1.816.158 2.607.477a5.69 5.69 0 0 1 2.04 1.382c.567.601 1.01 1.333 1.328 2.193.319.86.477 1.841.477 2.943zM40.458 23.881v-7.02c0-.362-.029-.707-.09-1.034a2.842 2.842 0 0 0-.297-.865 1.551 1.551 0 0 0-.58-.593c-.25-.145-.564-.219-.943-.219-.378 0-.71.074-.992.219a2.02 2.02 0 0 0-.711.607 2.74 2.74 0 0 0-.425.89 3.802 3.802 0 0 0-.143 1.045v6.97h-4.258V11.026h4.104v1.782h.051c.156-.276.357-.547.608-.813.249-.268.54-.495.876-.684.336-.19.7-.344 1.097-.465.395-.12.816-.181 1.265-.181.86 0 1.591.155 2.193.465.604.309 1.09.71 1.46 1.2.37.49.636 1.055.8 1.69.163.639.245 1.275.245 1.91v7.951h-4.26zM53.726 18.28h-.542c-.465 0-.934.021-1.407.064a5.691 5.691 0 0 0-1.264.245 2.352 2.352 0 0 0-.917.53c-.24.231-.361.538-.361.917 0 .24.056.447.168.619.111.172.255.308.425.412.172.103.37.176.595.22.222.043.438.064.645.064.86 0 1.52-.236 1.974-.71.456-.472.684-1.113.684-1.922v-.44zm-7.77-5.499a7.426 7.426 0 0 1 2.648-1.625 9.054 9.054 0 0 1 3.083-.542c1.084 0 2 .133 2.749.4.748.267 1.355.68 1.82 1.239.465.559.804 1.265 1.02 2.116.214.853.321 1.864.321 3.034v6.478h-3.87v-1.37h-.08c-.325.536-.82.947-1.483 1.24a5.284 5.284 0 0 1-2.155.439 6.57 6.57 0 0 1-1.6-.207 4.698 4.698 0 0 1-1.51-.67 3.651 3.651 0 0 1-1.123-1.24c-.293-.515-.438-1.152-.438-1.91 0-.929.254-1.678.76-2.244.509-.57 1.162-1.008 1.963-1.318.8-.308 1.69-.515 2.67-.619a27.65 27.65 0 0 1 2.866-.155v-.206c0-.636-.224-1.106-.67-1.407-.449-.3-1-.45-1.653-.45a4.1 4.1 0 0 0-1.743.387 5.536 5.536 0 0 0-1.432.929l-2.142-2.299zM63.488 14.176V19.1c0 .604.116 1.058.35 1.36.231.303.647.453 1.251.453.206 0 .425-.017.658-.051a2.27 2.27 0 0 0 .58-.155l.051 3.097a6.824 6.824 0 0 1-1.11.27 7.73 7.73 0 0 1-1.34.117c-.861 0-1.585-.108-2.17-.323-.585-.216-1.053-.527-1.406-.932a3.65 3.65 0 0 1-.761-1.448 7.04 7.04 0 0 1-.232-1.878v-5.433h-2.065v-3.15h2.038v-3.38h4.156v3.38h3.02v3.15h-3.02z"/><path d="M76.173 17.403a3.67 3.67 0 0 0-.206-1.214 3.206 3.206 0 0 0-.594-1.046c-.26-.3-.576-.546-.955-.735-.378-.19-.818-.285-1.316-.285-.5 0-.938.096-1.317.285-.379.19-.692.435-.941.735-.25.302-.44.65-.568 1.046a3.89 3.89 0 0 0 0 2.426c.128.396.322.754.58 1.071.259.319.576.573.955.762.378.19.818.283 1.316.283.5 0 .938-.093 1.317-.283.378-.189.697-.443.955-.762.257-.317.452-.675.581-1.07.128-.396.193-.8.193-1.213zm4.079 0c0 1.048-.191 2-.568 2.85a6.372 6.372 0 0 1-1.55 2.168 7.036 7.036 0 0 1-2.27 1.382 7.709 7.709 0 0 1-2.762.49c-.964 0-1.881-.163-2.75-.49a6.866 6.866 0 0 1-2.27-1.382 6.48 6.48 0 0 1-1.537-2.167c-.379-.851-.567-1.803-.567-2.851 0-1.05.188-1.997.567-2.84a6.375 6.375 0 0 1 1.536-2.142 6.667 6.667 0 0 1 2.272-1.342 8.109 8.109 0 0 1 2.749-.465c.98 0 1.901.155 2.762.465.86.309 1.617.757 2.27 1.342a6.27 6.27 0 0 1 1.55 2.142c.377.843.568 1.79.568 2.84zM89.322 14.51a3.304 3.304 0 0 0-.554-.102 5.632 5.632 0 0 0-.529-.026c-.568 0-1.045.103-1.434.31a2.932 2.932 0 0 0-.928.746c-.233.292-.4.609-.503.952a3.175 3.175 0 0 0-.155.9v6.591h-4.233v-12.84h4.078v1.86h.05a4.19 4.19 0 0 1 1.396-1.612c.602-.416 1.298-.624 2.09-.624.171 0 .338.01.504.025.162.02.296.045.399.079l-.181 3.741zM89.957 22.127a.176.176 0 0 0-.102-.168.431.431 0 0 0-.206-.052h-.335v.474h.335a.338.338 0 0 0 .215-.07.216.216 0 0 0 .093-.184zm.053 1.556-.44-.844h-.256v.845h-.624v-2.287h.986c.11 0 .222.012.334.034a.94.94 0 0 1 .302.12.62.62 0 0 1 .22.224.656.656 0 0 1 .085.343.611.611 0 0 1-.128.39.71.71 0 0 1-.33.234l.581.941h-.73zm1.257-1.1a1.684 1.684 0 0 0-.493-1.2 1.671 1.671 0 0 0-.532-.365 1.61 1.61 0 0 0-.655-.131c-.235 0-.455.042-.658.131a1.716 1.716 0 0 0-.907.906 1.654 1.654 0 0 0-.132.66 1.668 1.668 0 0 0 .496 1.187c.156.153.337.272.543.361.203.087.423.131.658.131a1.639 1.639 0 0 0 1.187-.493 1.654 1.654 0 0 0 .493-1.187zm.317 0a1.9 1.9 0 0 1-.158.775 1.98 1.98 0 0 1-.427.624 2.016 2.016 0 0 1-1.412.571 2.035 2.035 0 0 1-1.424-.571 1.94 1.94 0 0 1-.59-1.398 1.983 1.983 0 0 1 1.231-1.838c.248-.107.507-.16.783-.16s.536.054.78.16c.242.105.453.248.632.426.18.179.32.39.427.634.105.242.158.503.158.778z"/></g></svg>