<svg width="97" height="46" fill="none" xmlns="http://www.w3.org/2000/svg"><g fill="#55565A"><path d="M93.83 17.28v-.38a.431.431 0 0 0-.113-.304c-.038-.076-.114-.114-.228-.152.076 0 .114-.038.152-.076.152-.076.19-.228.19-.419a.565.565 0 0 0-.304-.532 1.762 1.762 0 0 0-.532-.076h-.723v1.977h.418v-.76h.229c.19 0 .304.038.342.076.114.076.152.19.152.418V17.356h.38l.038-.076zm-.873-.989h-.266v-.646h.266c.19 0 .304.038.38.076.076.038.114.114.114.266 0 .153-.076.228-.19.266-.076.038-.152.038-.304.038z"/><path d="M94.287 15.113a1.723 1.723 0 0 0-1.255-.532c-.494 0-.912.19-1.254.532-.342.343-.532.76-.532 1.255 0 .494.19.912.532 1.254.342.342.76.532 1.254.532.495 0 .913-.19 1.255-.532.342-.342.532-.76.532-1.254-.038-.494-.19-.912-.532-1.255zm-1.255 2.737c-.418 0-.76-.152-1.026-.418-.266-.304-.418-.646-.418-1.064 0-.418.152-.76.418-1.026.266-.305.646-.419 1.026-.419.419 0 .76.152 1.027.418.266.305.418.647.418 1.027 0 .418-.152.76-.418 1.064-.304.266-.646.418-1.026.418zM16.521 9.754c2.433 0 4.447-2.014 4.447-4.447A4.429 4.429 0 0 0 16.521.86c-2.432 0-4.447 2.015-4.447 4.447 0 2.433 2.015 4.447 4.447 4.447zM17.89 12.91c.418-.837.722-1.483.304-1.863-.076-.076-.228-.114-.456-.152h-4.637c-.722.114-.95.532-1.406 1.444-1.559 3.117-3.041 6.081-4.41 8.78C3.334 28.949.483 34.612.066 35.6c-.115.418-.077.798.113 1.064a1.37 1.37 0 0 0 1.026.456H1.318c3.46 0 6.918-5.32 8.704-8.513.076-.152 7.488-14.786 7.83-15.584l.038-.114zM38.186 11.085c-.114-.152-.304-.19-.494-.19h-4.865c-.494 0-.684.456-1.064 1.254-.076.114-.114.266-.19.418-3.421 6.766-5.892 11.63-5.93 11.669-.304.532-.608.798-1.026.912a6.68 6.68 0 0 1-1.026.076H23.02c-.418 0-.76-.152-.95-.456-.19-.304-.19-.722 0-1.14.037-.038 2.128-4.067 5.777-11.289.304-.57.38-.988.228-1.14l-.038-.038c-.038-.076-.114-.152-.342-.228h-5.017c-.494.114-.684.456-1.027 1.14l-.114.228-6.347 12.77c-.228 1.141 0 2.32.684 3.346 1.064 1.026 1.672 1.178 2.889 1.52.114.038.228.076.342.076.95.228 2.318.342 3.839.342 1.406 0 2.774-.114 3.648-.266 1.9-.456 3.117-1.292 4.828-4.751 0 0 .456-.912 6.537-12.96.228-.495.456-.99.228-1.293zM58.407 13.707c.152-.304.266-.57.418-.798.532-1.064.836-1.634.57-1.862-.076-.076-.19-.114-.418-.152H54.15a.954.954 0 0 0-.38.076c-.114.076-.266.266-.532.722-.076.114-2.053 3.99-3.953 7.792-.418-1.673-.722-3.041-.988-4.105-.912-3.801-1.065-4.485-1.597-4.485h-4.067c-.722.076-1.102.836-2.698 4.067-.38.798-.912 1.824-1.483 2.964a514.631 514.631 0 0 0-4.826 9.426l-.57 1.14c-.267.495-.305.875-.19 1.179.113.228.38.38.76.418h3.8c1.217 0 1.255-.114 1.825-1.178.038-.076.076-.152.114-.266 1.9-3.687 3.496-6.956 3.762-7.526.19.722 1.293 5.397 1.787 7.374.266 1.064.494 1.558 1.178 1.596H49.285c.722-.038 1.14-.532 1.596-1.444 1.863-3.687 3.611-7.146 5.017-9.92 1.293-2.547 2.243-4.448 2.509-5.018zM77.335 11.465c-.798-.494-2.812-.723-6.31-.76h-.607c-.418 0-.874-.039-1.33-.039-2.775 0-5.892.343-8.172 4.371-.228.495-4.675 9.198-4.827 9.617-.495 1.33-.38 2.508.266 3.496.912 1.33 2.926 2.167 5.207 2.167H61.98c6.461 0 7.373-.19 9.958-5.397.228-.419.418-.837.608-1.179 1.787-3.496 1.863-3.61 1.559-4.029-.305-.418-.723-.418-1.673-.418h-2.09c-2.129 0-2.319.076-2.927 1.255-.494 1.026-.684 1.482-.57 1.672.076.114.266.152.532.152h.494c.19.038.19.076.152.266-.304.608-.494.988-.646 1.254-.114.228-.19.38-.266.57-.418.647-1.14.685-1.368.685h-1.635c-.494 0-.912-.152-1.102-.456-.19-.305-.19-.723.038-1.217.418-.76 3.459-6.613 3.497-6.69.608-1.177 1.52-1.14 2.66-1.14H69.62c.722 0 1.482 0 1.634.19.114.229.038.419-.228.837l-.114.228c-.038.114-.038.19.038.266.114.152.456.19.874.19h2.66c1.255 0 1.445-.38 2.091-1.672l.076-.114c.532-1.027.912-1.863 1.102-2.357.266-.684.114-1.254-.418-1.748z"/><path d="M96.834 8.69c-.228-.532-.609-.95-1.14-1.14L81.971 1.62a2.115 2.115 0 0 0-1.596-.038c-.532.19-.95.609-1.178 1.14-.076.19-.114.38-.038.609l1.444 6.727c0 .152.038.38.076.646a2.64 2.64 0 0 0-.494.19c-.494.19-.76.76-.57 1.255.19.494.76.76 1.254.57.798-.304.874-.266 1.33-.076.304.114.723.304 1.369.456a.951.951 0 0 0 1.14-.646 1.01 1.01 0 0 0-.532-1.216l-1.52-.647c-.076-.152-.114-.418-.114-.646 0-.076 0-.114-.039-.19l-1.368-6.31h.038l13.721 5.93s.038 0 .038.038l-5.473 3.345c-.038.038-.114.076-.152.114-.152.152-.418.304-.57.38l-1.939-.836c-.456-.19-.988 0-1.254.418a1.01 1.01 0 0 0 .304 1.292c2.243 1.482 2.775 4.067 2.433 6.88-1.292.266-5.778.76-9.426-3.003a1 1 0 0 0-1.369-.038c-.38.38-.38.988-.038 1.406 3.041 3.117 6.5 3.801 8.894 3.801.57 0 1.103-.038 1.52-.076a20.044 20.044 0 0 1-1.444 3.801c-.038.114-.114.228-.152.304-.266.076-6.537 1.672-10.414-3.079a.97.97 0 0 0-1.368-.152.97.97 0 0 0-.152 1.369c2.774 3.42 6.461 4.142 9.084 4.142.57 0 1.102-.038 1.558-.076-1.862 2.813-4.56 5.056-8.096 4.143-.494-.114-1.026.152-1.178.647-.152.494.076 1.026.532 1.216l1.52.646c.076.152.115.418.115.646 0 .076 0 .114.038.19l1.368 6.31h-.038l-13.721-5.93s-.038 0-.038-.038l5.473-3.345c.038-.038.114-.076.152-.114.152-.152.418-.304.57-.38l1.787.684c.456.19.988-.038 1.216-.456a.985.985 0 0 0-.38-1.292 7.127 7.127 0 0 0-1.52-.722c-.115-.038-.267-.076-.305-.114-.038-.038-.152-.152-.38-.912-.152-.532-.722-.798-1.216-.646-.532.152-.798.722-.646 1.216.076.228.152.456.228.646-.266.152-.456.304-.608.418l-5.853 3.573a.887.887 0 0 0-.38.456 2.037 2.037 0 0 0 0 1.634c.227.532.607.95 1.14 1.14l13.72 5.93c.267.114.57.19.837.19.836 0 1.596-.494 1.938-1.292.076-.19.114-.38.076-.608l-1.444-6.804c0-.228-.038-.57-.152-.95 3.269-.532 6.195-3.23 8.476-7.868 2.432-4.979 2.812-9.502 1.14-12.619.532-.19.988-.532 1.216-.722l5.853-3.573a.887.887 0 0 0 .38-.456c.267-.456.267-1.026.039-1.558zM59.547 33.51c-1.293 0-2.053.265-2.433.988-.266.494.076.608.266.684-.494.076-.912.38-1.14.836-.456.874.228 1.178 1.444 1.178 1.179 0 2.205-.304 2.623-1.178.228-.418.114-.722-.304-.836.228-.076.684-.19.95-.684.38-.723-.114-.989-1.406-.989zm-1.064 2.052c.684 0 .684.228.57.418-.114.228-.342.418-1.027.418-.684 0-.684-.228-.57-.418.152-.228.38-.418 1.026-.418zm.342-.646c-.419 0-.685-.038-.533-.304.152-.305.457-.343.913-.343.418 0 .684.038.532.343-.152.266-.494.304-.912.304zm-4.447 1.368H51.64c.836-.646 2.927-.304 3.61-1.634.419-.799-.113-1.179-1.291-1.179-1.14 0-2.129.304-2.737 1.33h1.254c.228-.418.646-.57 1.102-.57.456 0 .57.152.456.38-.075.19-.303.305-.532.343l-.95.228c-1.026.266-1.9.646-2.546 1.824h4.029l.342-.722zm-6.158-2.775c-1.292 0-2.052.266-2.432.989-.266.494.076.608.266.684-.494.076-.912.38-1.14.836-.457.874.228 1.178 1.444 1.178 1.178 0 2.204-.304 2.622-1.178.229-.418.114-.722-.304-.836.228-.076.684-.19.95-.684.343-.723-.151-.989-1.406-.989zm-1.102 2.053c.684 0 .684.228.57.418-.114.228-.342.418-1.026.418-.684 0-.684-.228-.57-.418.152-.228.38-.418 1.026-.418zm.342-.646c-.418 0-.684-.038-.532-.304.152-.305.456-.343.912-.343.418 0 .684.038.532.343-.152.266-.456.304-.912.304zm-6.31 2.166h1.103l1.824-3.497h-.874c-.494.57-.95.646-1.444.646h-.19l-.38.76h1.064l-1.102 2.091zm-10.68 0h3.611l.418-.76h-2.394l.342-.646h2.242l.38-.76h-2.242l.342-.646h2.395l.418-.76H32.37l-1.9 3.572zm-2.318-1.406c-.304.418-.76.684-1.292.684-.76 0-.723-.494-.418-1.102.266-.608.798-1.102 1.558-1.102.684 0 .646.418.57.684h1.33c.38-1.255-.38-1.483-1.482-1.483-1.558 0-2.623.723-3.269 1.9-.646 1.255-.266 1.901 1.255 1.901 1.71 0 2.508-.722 3.04-1.482h-1.292zm-9.882 1.406h1.14l1.178-2.28.532 2.28h1.33l1.863-3.61h-1.14l-1.178 2.242-.495-2.243h-1.368l-1.862 3.611zm-3.155 0h1.216l1.863-3.61h-1.217l-1.862 3.61zm-.532-2.546c.38-.837-.266-1.179-1.558-1.179-1.559 0-2.205.684-2.471 1.14-.266.533-.19.913.494 1.027l1.102.19c.38.076.495.114.418.304-.152.304-.532.38-.836.38-.608 0-.684-.19-.57-.456H9.756c-.456.988.304 1.216 1.52 1.216.494 0 2.09 0 2.699-1.216.342-.646.076-.912-.532-1.026-.304-.076-1.179-.19-1.445-.266-.152-.038-.228-.114-.152-.228.114-.228.418-.342.799-.342.532 0 .646.19.57.418h1.368v.038z"/></g></svg>