<svg width="94" height="56" fill="none" xmlns="http://www.w3.org/2000/svg"><g clip-path="url(#a)"><path d="M4.758 49.574c-.469-.508-1.14-.761-2.02-.761-.883 0-1.558.253-2.031.753C.234 50.07 0 50.801 0 51.754c0 .953.234 1.687.707 2.195.469.512 1.145.766 2.023.766h.09L3.871 56h1.555l-1.38-1.54c.462-.214.813-.546 1.052-1.003.238-.457.359-1.02.359-1.695 0-.953-.23-1.68-.7-2.188zm89.441 3.168v-.914c-.05-.465-.218-.844-.5-1.129-.343-.351-.828-.527-1.445-.527-.648 0-1.156.2-1.523.601-.368.399-.551.97-.551 1.704 0 .71.199 1.261.593 1.652.399.39.95.586 1.657.586.343 0 .632-.028.87-.078.24-.051.462-.13.673-.235v-.922a4.009 4.009 0 0 1-.739.262 3.318 3.318 0 0 1-.75.082c-.34 0-.605-.093-.793-.285-.187-.191-.289-.457-.3-.797h2.808zm-92.554-2.43c.246-.324.609-.488 1.093-.488.961 0 1.446.649 1.446 1.938s-.485 1.933-1.454 1.933c-.484 0-.847-.164-1.09-.488-.245-.324-.367-.805-.367-1.445s.125-1.125.372-1.45zm9.73 4.325V50.25H10.18v2.066c0 .516-.075.887-.223 1.11-.148.222-.39.336-.723.336-.246 0-.425-.078-.539-.239-.113-.156-.168-.394-.168-.71V50.25H7.332v2.86c0 .519.129.913.39 1.19.262.278.65.415 1.165.415.3 0 .57-.059.804-.168.235-.11.418-.27.543-.473h.063l.164.563h.914zm5.68 0v-2.922c0-.524-.157-.91-.473-1.168-.313-.258-.766-.387-1.352-.387-.613 0-1.171.133-1.68.399l.4.808c.472-.215.882-.32 1.234-.32.453 0 .68.223.68.668v.191l-.759.024c-.656.023-1.148.148-1.472.367-.324.223-.488.562-.488 1.027 0 .446.12.79.363 1.028.242.242.57.363.992.363.344 0 .621-.05.832-.149.215-.097.422-.273.625-.527h.031l.23.598h.837zm-1.192-1.672c0 .265-.082.476-.246.637-.168.16-.387.238-.664.238-.387 0-.582-.168-.582-.504 0-.238.086-.414.254-.527.172-.114.43-.18.777-.188l.461-.016v.36zm4.418-4.43h-1.195v6.102h1.195v-6.102zm2.66 1.172c.215 0 .38-.05.489-.156.105-.102.16-.246.16-.43 0-.39-.215-.586-.649-.586-.433 0-.652.196-.652.586 0 .39.219.586.652.586zm.594.543H22.34v4.387h1.195V50.25zm3.527 3.39c-.093-.081-.144-.206-.144-.378v-2.114h1.227v-.898h-1.227v-.93h-.762l-.347.926-.657.398v.504h.57v2.114c0 .484.11.847.329 1.09.219.242.566.363 1.047.363.433 0 .797-.067 1.093-.2v-.89c-.289.09-.543.137-.75.137a.559.559 0 0 1-.378-.121zm6.438.997v-2.922c0-.524-.156-.91-.469-1.168-.312-.258-.765-.387-1.351-.387-.617 0-1.176.133-1.68.399l.395.808c.472-.215.886-.32 1.234-.32.457 0 .683.223.683.668v.191l-.757.024c-.657.023-1.149.148-1.477.367-.324.223-.484.562-.484 1.027 0 .446.117.79.36 1.028.241.242.573.363.995.363.34 0 .621-.05.832-.149.215-.097.422-.273.621-.527h.032l.23.598h.836zm-1.188-1.672c0 .265-.081.476-.25.637-.164.16-.386.238-.664.238-.386 0-.578-.168-.578-.504 0-.238.082-.414.254-.527.168-.114.43-.18.778-.188l.46-.016v.36zm-1.792-3.453c.097.09.23.136.398.136a.546.546 0 0 0 .402-.144.486.486 0 0 0 .149-.379.518.518 0 0 0-.145-.383c-.097-.097-.234-.144-.406-.144-.168 0-.3.047-.398.136a.515.515 0 0 0-.149.391c0 .168.05.293.149.387zm1.59.008c.109.085.238.128.394.128a.577.577 0 0 0 .406-.14.497.497 0 0 0 .153-.383.5.5 0 0 0-.153-.387.57.57 0 0 0-.406-.14.614.614 0 0 0-.395.129c-.105.082-.156.218-.156.398 0 .18.05.313.156.395zm4.894 4.12c-.098-.081-.145-.206-.145-.378v-2.114h1.227v-.898h-1.227v-.93h-.761l-.348.926-.656.398v.504h.57v2.114c0 .484.11.847.328 1.09.219.242.567.363 1.043.363.438 0 .8-.067 1.102-.2v-.89c-.293.09-.547.137-.754.137a.559.559 0 0 1-.38-.121zm5.766-.867a1.148 1.148 0 0 0-.356-.414c-.16-.12-.41-.25-.754-.39-.383-.153-.633-.27-.746-.348-.113-.078-.168-.172-.168-.277 0-.192.176-.29.527-.29.2 0 .395.032.586.09.188.063.395.137.614.235l.363-.863a3.651 3.651 0 0 0-1.543-.344c-.555 0-.98.105-1.281.316-.305.215-.453.516-.453.907 0 .226.035.417.105.574.074.156.188.293.348.41.156.121.402.254.742.394.234.102.422.188.562.262.141.074.243.14.297.2.059.058.09.136.09.23 0 .25-.219.375-.652.375-.211 0-.457-.035-.735-.106a4.206 4.206 0 0 1-.75-.261v.988c.196.082.407.145.63.187.226.043.495.067.816.067.62 0 1.09-.117 1.402-.356.313-.234.469-.578.469-1.023a1.3 1.3 0 0 0-.114-.563zm4.207-.78H44.87v.98h2.106v-.98zm5.945 2.644 1.48-4.492h.035c-.03.722-.05 1.167-.054 1.335-.004.168-.004.313-.004.442v2.715h1.133v-5.735h-1.657l-1.437 4.387h-.023l-1.356-4.387h-1.656v5.735h1.086v-2.668c0-.305-.024-.914-.075-1.828h.036l1.379 4.496h1.113zm8.36 0v-2.922c0-.524-.157-.91-.47-1.168-.316-.258-.765-.387-1.355-.387-.613 0-1.172.133-1.676.399l.395.808c.472-.215.886-.32 1.234-.32.457 0 .684.223.684.668v.191l-.762.024c-.656.023-1.145.148-1.473.367-.324.223-.488.562-.488 1.027 0 .446.121.79.363 1.028.243.242.575.363.996.363.34 0 .618-.05.833-.149.21-.097.417-.273.62-.527h.032l.23.598h.836zm-1.188-1.672c0 .265-.082.476-.25.637-.164.16-.387.238-.664.238-.387 0-.578-.168-.578-.504 0-.238.082-.414.254-.527.167-.114.425-.18.773-.188l.465-.016v.36zm6.914-4.125c-.383-.23-.895-.348-1.531-.348-.676 0-1.204.149-1.586.446-.383.296-.575.706-.575 1.234v4.465h1.196V50.21c0-.25.086-.441.254-.582.171-.133.406-.203.71-.203.262 0 .473.05.641.16.164.105.25.234.25.39a.546.546 0 0 1-.125.34c-.078.106-.219.227-.422.371a1.54 1.54 0 0 0-.41.399.807.807 0 0 0-.137.46c0 .212.063.395.192.552.129.156.355.324.683.515.196.11.344.203.454.282.105.078.18.152.222.218a.472.472 0 0 1 .063.262c0 .32-.219.48-.66.48-.165 0-.356-.03-.575-.097a2.04 2.04 0 0 1-.53-.239v.95c.16.086.331.152.519.187.187.04.41.059.671.059.59 0 1.04-.113 1.344-.344.305-.227.457-.562.457-1.016 0-.203-.031-.382-.097-.542a1.214 1.214 0 0 0-.309-.434c-.137-.125-.394-.309-.777-.547a2.379 2.379 0 0 1-.364-.258.284.284 0 0 1-.101-.207c0-.058.027-.113.082-.172.055-.054.121-.113.207-.175.082-.063.176-.13.27-.208.097-.074.187-.164.269-.261.086-.098.156-.215.21-.34.056-.125.083-.273.083-.441 0-.391-.192-.7-.578-.93zm5.761 3.933a1.1 1.1 0 0 0-.351-.414c-.16-.12-.41-.25-.754-.39-.383-.153-.633-.27-.746-.348-.113-.078-.172-.172-.172-.277 0-.192.176-.29.531-.29.2 0 .395.032.582.09.192.063.399.137.618.235l.359-.863a3.621 3.621 0 0 0-1.54-.344c-.554 0-.98.105-1.284.316-.301.215-.453.516-.453.907 0 .226.039.417.109.574.07.156.188.293.344.41.16.121.406.254.746.394.234.102.422.188.562.262.14.074.243.14.297.2a.312.312 0 0 1 .086.23c0 .25-.215.375-.648.375-.211 0-.457-.035-.735-.106a4.364 4.364 0 0 1-.754-.261v.988c.2.082.407.145.633.187.223.043.496.067.817.067.62 0 1.09-.117 1.398-.356.317-.234.473-.578.473-1.023 0-.219-.04-.406-.118-.563zm3.32.868c-.097-.082-.144-.207-.144-.38v-2.113h1.227v-.898h-1.227v-.93h-.765l-.344.926-.656.398v.504h.57v2.114c0 .484.11.847.328 1.09.219.242.566.363 1.043.363.434 0 .8-.067 1.098-.2v-.89c-.293.09-.543.137-.75.137a.559.559 0 0 1-.38-.121zm6.438.996v-2.922c0-.524-.156-.91-.468-1.168-.317-.258-.766-.387-1.356-.387-.613 0-1.172.133-1.676.399l.395.808c.472-.215.887-.32 1.234-.32.457 0 .684.223.684.668v.191l-.762.024c-.656.023-1.144.148-1.472.367-.325.223-.489.562-.489 1.027 0 .446.121.79.364 1.028.242.242.574.363.996.363.34 0 .62-.05.832-.149.214-.097.422-.273.62-.527h.032l.23.598h.836zm-1.187-1.672c0 .265-.082.476-.25.637-.164.16-.387.238-.664.238-.387 0-.578-.168-.578-.504 0-.238.082-.414.254-.527.167-.114.43-.18.777-.188l.46-.016v.36zm-1.793-3.453c.097.09.23.136.398.136a.547.547 0 0 0 .403-.144.5.5 0 0 0 .148-.379.519.519 0 0 0-.144-.383.556.556 0 0 0-.407-.144c-.168 0-.3.047-.398.136a.515.515 0 0 0-.149.391c0 .168.051.293.149.387zm1.59.008a.606.606 0 0 0 .394.128.577.577 0 0 0 .406-.14.497.497 0 0 0 .153-.383.5.5 0 0 0-.153-.387.57.57 0 0 0-.406-.14.606.606 0 0 0-.394.129c-.106.082-.156.218-.156.398 0 .18.05.313.156.395zm4.62 1.3h-.046c.031-.398.047-.683.047-.867v-1.418h-1.195v6.102h.914l.199-.485h.082c.293.375.695.563 1.21.563.52 0 .93-.2 1.235-.598.3-.394.453-.957.453-1.68 0-.703-.148-1.257-.441-1.66-.293-.406-.696-.605-1.215-.605-.547 0-.965.215-1.242.648zm1.458.63c.148.218.222.538.222.968 0 .434-.074.762-.218.988-.145.227-.34.34-.586.34-.305 0-.527-.102-.664-.305-.14-.207-.211-.543-.211-1.011v-.133c.004-.414.074-.715.21-.899.138-.18.352-.27.65-.27.253 0 .452.106.597.321zm5.648-.188c.153.16.227.39.235.683h-1.68c.02-.293.105-.523.246-.683.145-.16.344-.242.598-.242s.453.082.601.242z" fill="#55565A"/><path d="M47.11 44.027c19.074 0 34.534-9.574 34.534-21.386 0-11.817-15.46-21.395-34.535-21.395-19.074 0-34.535 9.578-34.535 21.395 0 11.812 15.461 21.386 34.535 21.386z" fill="#fff"/><path d="M47.11 2.54c18.308 0 33.246 9.023 33.246 20.097 0 11.078-14.938 20.105-33.247 20.105-18.312 0-33.246-9.027-33.246-20.105 0-11.075 14.934-20.098 33.246-20.098z" fill="#55565A"/><path d="M54.09 27.442c-2.293.792-4.39 1.777-5.191 3.808-1.168 3.379.332 3.996.699 4.113.496.11 1.898.52 3.406-4.383.817-2.332 1.219-3.652 1.086-3.538zm.754-2.079c.356-1.113 1.563-4.46 1.648-4.902-.09-.266-.273-.61-.921-.836-.653-.227-1.317.23-1.614 1.067-.297.515-1.289 3.675-1.636 4.644-.239.895.312 1.023.57 1.117.328.004 1.328-.363 1.953-1.09zm11.324.477c.797-.75 1.778-4.656 2.059-5.242 0-.274.023-.832-.719-1.078-1.082-.172-1.45.422-1.73.96-.254.622-1.188 3.618-1.54 4.5-.214.817-.078 1.024.216 1.223.261.07.914.332 1.714-.363zm-23.527-.148c.543-.81 1.887-5.083 1.984-5.325.098-.246.028-.855-.699-.98-1.094-.172-1.363.383-1.66.898-.3.516-1.383 3.79-1.602 4.61-.214.82-.035 1.441.258 1.464.313.106 1.04.055 1.719-.668zM30.657 17.98c.746-.019 2.253.004 2.34-.011l2.16-6.54c-2.684.614-4.336 5.805-4.5 6.551zm-5.54 7.926c1.254-.11 2.383-3.562 2.47-4.57l-2.516-.004s.683-2.2 1.117-3.363c.426-.008 2.039.023 2.406 0 .191-.11.191-.602.566-1.39.434-.833 1.438-4.056 4.684-5.556 2.469-1.218 4.121-1.277 4.375-1.37.188.007 1.32-.243 1.184-.051a400.982 400.982 0 0 1-2.758 8.351c-.028.082 1.176.016 1.347.035.044.004-.144.36-.292.946-.278.746-.567 1.648-.653 1.89l-.172.504-1.328-.02c-.34 1.419-1.183 3.297-1.3 3.9-.122.597.074 1.187 1.035 1.093 1.16-.207 1.586-.88 1.828-1.145.09-.125-.192-3.351 2.32-6.023 1.426-1.664 4.195-1.387 4.656-1.07.172.113.73.293.89.734.145.05.157-.082.177-.133.37-1.11 1.386-4.016 1.87-5.547 1.126.035 2.427-.02 3.54.004.02.106-.223.77-.336 1.086a220.66 220.66 0 0 0-1.555 4.605c-.644 1.844-1.504 4.399-1.77 5.172-.202.711-.804 1.653-.156 1.899.258.062.77.055 1.594-.836.117-1.422.633-3.137 1.594-4.426.676-.902 1.73-2.226 3.707-2.59 1.73-.164 2.262.282 2.434.371.218.082.542.325.757.567l.094.05c.195-.19.219-.93.379-1.054.29 0 2.898.004 3.559.023-.465 1.352-2.278 6.75-2.668 7.82l.043.184c.894-.308 1.332-.515 2.246-.836.066-.347.226-1.222.316-1.71.16-.755 1.133-3.466 2.64-4.641 1.036-.805 2.731-1.055 3.657-.793.367.117 1.059.242 1.582.933h.117c.098-.265.317-.937.367-.957.075-.03 2.832-.008 3.47-.008-.911 2.899-1.337 3.993-2.099 6.313-.3.781-.753 1.774-.039 1.922.653.09 1.415-.871 1.993-1.485.496.087.558-.015.945.063-.066.105-1.145 1.566-2.113 2.371-.68.41-1.242 1.188-3.02 1.219-1.871-.328-1.426-1.172-1.832-1.461-1.3.996-2.492 1.371-3.305 1.445-1 .082-2.425-.504-2.672-1.933l-.054-.024c-.485.125-2.645 1.23-2.887 1.301-.473 1.281-1.125 3.539-1.605 4.555-.317.68-.754 1.883-3.043 3.539-1.54.98-5.492 1.316-6.418-1.996-.399-2.43.82-3.657 1.203-4.242.383-.59 1.894-1.649 2.926-2.208-1.688-.136-1.72-1.289-1.887-1.191-.492.281-1.406 1.441-3.773 2.152-1.856.117-1.926-1.054-2.063-1.265-2.059 1.012-1.938 1.125-3.223 1.156-1.172.031-2.043-1.043-2.207-1.59l-.156-.015c-.742.57-2.555 1.632-3.738 1.593-1.242.121-3.477-.64-2.7-3.715l1.036-3.16-2.426.004c-.106.344-1.25 3.332-1.797 4.055-.547.723-1.266 2.258-2.922 2.758-1.66.5-3.465-.117-3.875-1.762-.414-1.649.527-2.977 2.008-3.207 1.285-.203 2.941 1.094 2.227 2.734z" fill="#fff"/><path d="M26.445 34.11a.484.484 0 0 0-.148-.176 1.593 1.593 0 0 0-.313-.16 2.008 2.008 0 0 1-.308-.145c-.047-.031-.07-.07-.07-.117 0-.078.07-.117.218-.117a.73.73 0 0 1 .242.039c.082.023.165.054.254.093l.153-.355a1.487 1.487 0 0 0-.641-.145c-.23 0-.406.043-.531.133a.43.43 0 0 0-.192.375.462.462 0 0 0 .191.41c.063.051.169.102.306.164a2.6 2.6 0 0 1 .238.106.63.63 0 0 1 .12.082.142.142 0 0 1 .036.098c0 .105-.09.156-.27.156a1.38 1.38 0 0 1-.304-.043 1.933 1.933 0 0 1-.313-.11v.41c.082.036.168.06.262.079.094.02.207.027.34.027.258 0 .453-.05.582-.148a.501.501 0 0 0 .195-.426.515.515 0 0 0-.047-.23zm1.836-.63c.063.067.098.16.098.286h-.695a.461.461 0 0 1 .101-.285c.059-.067.14-.098.246-.098.106 0 .192.031.25.097zm.184 1.403c.098-.024.191-.055.277-.098v-.383a1.574 1.574 0 0 1-.305.106 1.34 1.34 0 0 1-.312.035c-.14 0-.25-.04-.328-.117a.48.48 0 0 1-.125-.332h1.172v-.239c0-.257-.07-.46-.215-.609-.145-.144-.344-.219-.598-.219-.27 0-.48.082-.633.25-.156.168-.23.403-.23.707 0 .297.082.524.246.688.168.16.395.242.688.242.14 0 .261-.012.363-.031zm1.433-2.047c.09 0 .157-.023.2-.066a.23.23 0 0 0 .07-.18c0-.16-.09-.242-.27-.242-.18 0-.27.082-.27.242 0 .164.09.246.27.246zm.247.227h-.497v1.82h.497v-1.82zm1.53 1.406a.2.2 0 0 1-.062-.157v-.878h.512v-.371h-.512v-.391h-.316l-.145.387-.27.164v.21h.235v.88c0 .199.047.351.137.449.09.101.234.152.433.152.18 0 .332-.027.457-.082v-.371a1.05 1.05 0 0 1-.312.059.242.242 0 0 1-.156-.051zm3.618-1.969h-.41l-.77.613.242.301.274-.219c.035-.027.094-.082.176-.164l-.008.246-.004.227v1.379h.5V32.5zm2.61.457a.79.79 0 0 0-.305-.36.857.857 0 0 0-.461-.124c-.25 0-.45.074-.594.222-.145.149-.215.352-.215.606 0 .234.059.422.18.554.117.133.281.2.488.2.125 0 .227-.02.309-.063a.573.573 0 0 0 .218-.215h.02a1.05 1.05 0 0 1-.098.438.512.512 0 0 1-.25.23.982.982 0 0 1-.414.075c-.101 0-.195-.012-.289-.032v.403c.074.015.18.023.32.023.403 0 .7-.117.899-.348.195-.23.297-.582.297-1.05 0-.215-.035-.403-.106-.559zm-.497.055a.521.521 0 0 1 .102.328.288.288 0 0 1-.11.226.362.362 0 0 1-.261.102c-.11 0-.192-.031-.242-.102a.415.415 0 0 1-.083-.273c0-.133.032-.234.09-.309a.3.3 0 0 1 .242-.105c.106 0 .196.043.262.133zm2.914 1.445h-1.039v-.023l.309-.286c.203-.187.344-.332.426-.433.082-.102.14-.2.18-.297a.784.784 0 0 0 .058-.305.628.628 0 0 0-.36-.566.974.974 0 0 0-.394-.078c-.113 0-.215.011-.309.031-.09.023-.172.055-.25.094a1.787 1.787 0 0 0-.293.215l.274.324a1.29 1.29 0 0 1 .273-.184.65.65 0 0 1 .27-.062c.086 0 .156.023.21.07.052.047.079.117.079.215a.496.496 0 0 1-.035.184 1.235 1.235 0 0 1-.117.195c-.055.07-.172.195-.348.375l-.598.605v.352h1.664v-.426zm1.996-1.84c-.144-.101-.34-.148-.586-.148-.3 0-.558.078-.773.234l.23.344c.098-.063.188-.11.27-.133a.741.741 0 0 1 .238-.039c.227 0 .34.09.34.27 0 .117-.043.199-.129.25-.086.046-.218.07-.402.07h-.184v.387h.18c.2 0 .344.023.434.07.093.047.136.125.136.234 0 .125-.039.219-.117.274-.078.058-.203.086-.367.086-.11 0-.219-.016-.328-.047a1.34 1.34 0 0 1-.305-.114v.43c.2.086.426.13.688.13.304 0 .543-.067.71-.192a.64.64 0 0 0 .247-.535.483.483 0 0 0-.149-.376c-.097-.093-.242-.152-.433-.175v-.008c.16-.04.289-.113.379-.215a.561.561 0 0 0 .132-.379c0-.18-.07-.316-.21-.418z" fill="#fff"/></g><defs><clipPath id="a"><path fill="#fff" d="M0 0h94v56H0z"/></clipPath></defs></svg>