<svg width="136" height="34" fill="none" xmlns="http://www.w3.org/2000/svg"><g fill="#55565A"><path d="m55.351 25.738-2.753-6.392c1.672-.646 2.753-2.278 2.753-4.386 0-2.516-1.639-4.862-5.243-4.862H43.75v15.64h2.753v-5.916h3.342l2.524 5.916h2.982zm-2.72-10.778c0 1.462-.885 2.312-2.458 2.312h-3.67V12.58h3.605c1.573 0 2.523 1.122 2.523 2.38zm13.764 5.134c.033-1.428-.164-2.72-.95-3.978-.918-1.428-2.393-2.108-4.031-2.108-1.508 0-2.688.578-3.54 1.462-1.048 1.122-1.605 2.754-1.605 4.59 0 1.87.59 3.502 1.704 4.59.885.85 1.966 1.428 3.473 1.428 1.41 0 2.786-.476 3.736-1.598.426-.544.885-1.428.95-2.108h-2.556c-.098.408-.294.714-.524.986-.393.408-.852.544-1.606.544-.72 0-1.245-.34-1.638-.714-.525-.544-.82-1.36-.82-2.244h7.407v-.85zm-2.655-1.258h-4.784c.033-.748.196-1.292.59-1.802.393-.544 1.048-.884 1.835-.884.754 0 1.31.272 1.671.646.426.544.656 1.19.688 2.04zm7.112-9.01H68v2.856h2.85V9.826zm-.066 4.42H68.1v11.458h2.687V14.246zm12.158 11.492V9.792H80.29v5.236c-.459-.612-1.475-1.088-2.884-1.088-1.114 0-2.032.34-2.687.918-1.311 1.122-1.967 2.856-1.967 5.134 0 2.176.623 3.876 1.967 4.998a4.147 4.147 0 0 0 2.687.986c1.212 0 2.458-.476 3.113-1.53l.164 1.258h2.261v.034zm-2.523-5.746c0 1.666-.426 3.706-2.524 3.706-.819 0-1.409-.408-1.802-.918-.557-.748-.688-1.802-.688-2.788 0-.986.164-2.04.688-2.788.393-.51.95-.918 1.802-.918 2.098 0 2.524 2.04 2.524 3.706zm7.996-10.166h-2.851v2.856h2.851V9.826zm-.066 4.42h-2.687v11.458h2.687V14.246zm12.093 11.492v-7.65c0-2.38-1.376-4.114-3.736-4.114-1.278 0-2.589.544-3.244 1.768l-.197-1.462H91.04v11.458h2.654v-4.692c0-.986-.033-2.176.36-3.06.361-.85.984-1.462 1.901-1.462 1.41 0 1.836.816 1.836 2.176v7.038h2.654zm12.453 1.53c0-1.088-.393-2.074-1.344-2.754-1.048-.748-2.49-.782-3.604-.782h-1.836c-.557 0-1.212-.17-1.212-.85 0-.374.295-.646.557-.816.557.204 1.18.306 1.802.306 2.393 0 4.523-1.53 4.523-4.182 0-.782-.197-1.462-.59-2.074.164-.544.721-.714 1.343-.714.066 0 .164.034.197.034v-2.142c-.164-.034-.557-.034-.721-.034-.95 0-1.802.442-2.261 1.428a4.876 4.876 0 0 0-2.523-.714c-2.491 0-4.523 1.462-4.523 4.216 0 1.156.426 2.108 1.114 2.822-.884.578-1.31 1.36-1.31 2.312 0 .748.393 1.564 1.114 1.972-.852.442-1.311 1.36-1.311 2.346 0 1.088.491 1.904 1.344 2.516 1.147.85 2.588.952 3.899.952 2.458 0 5.342-.816 5.342-3.842zm-3.703-9.078c0 1.224-.754 2.108-1.966 2.108-1.213 0-1.967-.884-1.967-2.108 0-1.224.754-2.142 1.967-2.142 1.245 0 1.966.918 1.966 2.142zm1.18 9.146c0 1.53-1.868 1.598-2.95 1.598-1.048 0-2.785-.136-2.785-1.598 0-.714.426-1.224 1.016-1.428h2.097c.983 0 2.622 0 2.622 1.428zm13.141-7.242c.033-1.428-.164-2.72-.951-3.978-.917-1.428-2.392-2.108-4.03-2.108-1.508 0-2.688.578-3.54 1.462-1.048 1.122-1.605 2.754-1.605 4.59 0 1.87.589 3.502 1.704 4.59.884.85 1.966 1.428 3.473 1.428 1.41 0 2.786-.476 3.736-1.598.426-.544.885-1.428.951-2.108h-2.556a2.347 2.347 0 0 1-.525.986c-.393.408-.852.544-1.606.544-.721 0-1.245-.34-1.638-.714-.525-.544-.819-1.36-.819-2.244h7.406v-.85zm-2.655-1.258h-4.784c.033-.748.196-1.292.59-1.802.393-.544 1.048-.884 1.835-.884.754 0 1.311.272 1.671.646.459.544.688 1.19.688 2.04zm11.143-2.006v-2.652a6.683 6.683 0 0 0-.82-.068c-1.311 0-2.621.544-3.113 1.87l-.229-1.734h-2.262v11.458h2.688v-5.78c0-1.87.983-3.23 2.851-3.23.262 0 .59.068.885.136zM25.53 14.79l3.735-8.806-8.488 3.876c1.278-.204 2.59.204 3.572 1.224.983.986 1.377 2.38 1.18 3.706zM29.298 28.118c5.44-5.644 5.866-14.552 1.245-20.706l-.787 1.836c3.54 5.406 2.983 12.852-1.638 17.646-2.425 2.482-5.506 3.842-8.652 4.046l-1.671 1.734c4.096.238 8.324-1.258 11.503-4.556zM27.921 4.726C21.989-.102 13.371.306 7.931 5.984c-3.18 3.264-4.654 7.65-4.424 11.934l1.67-1.734a14.24 14.24 0 0 1 3.9-8.976c4.621-4.794 11.798-5.372 17.042-1.666l1.802-.816zM15.697 32.402l3.802-3.944c1.704-2.04 1.606-5.134-.262-7.106-1.836-1.904-4.752-2.04-6.719-.374L6.816 26.86c.328.442.688.85 1.082 1.258 2.228 2.278 4.915 3.706 7.8 4.284zm-6.98-9.962 2.589-2.686s.131-.17.164-.272a2.71 2.71 0 0 0-.328-3.332c-.95-.952-2.425-1.02-3.408-.17l-2.49 2.584-1.475 1.53a16.07 16.07 0 0 0 2.064 5.338l2.884-2.992z"/></g></svg>