<svg xmlns="http://www.w3.org/2000/svg" width="88" height="84" viewBox="0 0 88 84" fill="none">
<path fill-rule="evenodd" clip-rule="evenodd" d="M26.4412 11.8895C21.8947 15.098 19 19.7543 19 26.0125C19 27.7742 17.6009 29.2024 15.875 29.2024C14.1491 29.2024 12.75 27.7742 12.75 26.0125C12.75 17.3845 16.8865 10.8763 22.8869 6.64173C28.7937 2.47323 36.4837 0.493408 44 0.493408C51.5163 0.493408 59.2063 2.47323 65.1131 6.64173C71.1135 10.8763 75.25 17.3845 75.25 26.0125C75.25 27.7742 73.8509 29.2024 72.125 29.2024C70.3991 29.2024 69 27.7742 69 26.0125C69 19.7543 66.1053 15.098 61.5588 11.8895C56.9187 8.61489 50.5462 6.87318 44 6.87318C37.4538 6.87318 31.0813 8.61489 26.4412 11.8895Z" fill="#88A728"/>
<path fill-rule="evenodd" clip-rule="evenodd" d="M61.5588 72.0343C66.1053 68.8257 69 64.1694 69 57.9112C69 56.1495 70.3991 54.7213 72.125 54.7213C73.8509 54.7213 75.25 56.1495 75.25 57.9112C75.25 66.5392 71.1135 73.0474 65.1131 77.282C59.2063 81.4505 51.5163 83.4303 44 83.4303C36.4837 83.4303 28.7937 81.4505 22.8869 77.282C16.8865 73.0474 12.75 66.5392 12.75 57.9112C12.75 56.1495 14.1491 54.7213 15.875 54.7213C17.6009 54.7213 19 56.1495 19 57.9112C19 64.1694 21.8947 68.8257 26.4412 72.0343C31.0813 75.3088 37.4538 77.0505 44 77.0505C50.5462 77.0505 56.9187 75.3088 61.5588 72.0343Z" fill="#212420"/>
<path fill-rule="evenodd" clip-rule="evenodd" d="M69.9153 39.7065C71.1357 38.4608 73.1143 38.4608 74.3347 39.7065L86.8347 52.466C88.0551 53.7118 88.0551 55.7315 86.8347 56.9772C85.6143 58.223 83.6357 58.223 82.4153 56.9772L72.125 46.4733L61.8347 56.9772C60.6143 58.223 58.6357 58.223 57.4153 56.9772C56.1949 55.7315 56.1949 53.7118 57.4153 52.466L69.9153 39.7065Z" fill="#212420"/>
<path fill-rule="evenodd" clip-rule="evenodd" d="M13.6653 44.2177C14.8857 45.4634 16.8643 45.4634 18.0847 44.2177L30.5847 31.4581C31.8051 30.2124 31.8051 28.1927 30.5847 26.947C29.3643 25.7012 27.3857 25.7012 26.1653 26.947L15.875 37.4509L5.58471 26.947C4.36432 25.7012 2.38568 25.7012 1.16529 26.947C-0.0550972 28.1927 -0.0550972 30.2124 1.16529 31.4581L13.6653 44.2177Z" fill="#88A728"/>
</svg>