<svg width="256" height="48" fill="none" xmlns="http://www.w3.org/2000/svg"><path d="M97.759 33.178h4.048l3.266 10.719h.056l2.973-10.719h4.453l3.21 10.719h.056l3.056-10.719h3.658l-4.509 14.479h-4.522l-3.197-11.048h-.056l-3.154 11.048h-4.369l-4.97-14.479zM133.272 38.997a5.158 5.158 0 0 0-.223-1.338 3.211 3.211 0 0 0-.573-1.084 2.595 2.595 0 0 0-.949-.72c-.381-.175-.837-.262-1.368-.262-.521 0-.984.087-1.388.261a3.12 3.12 0 0 0-1.718 1.791 4.728 4.728 0 0 0-.3 1.352h6.519zm2.568 7.85a7.779 7.779 0 0 1-2.442.906c-.866.165-1.736.247-2.611.247-1.237 0-2.333-.163-3.287-.487-.954-.325-1.756-.805-2.408-1.441-.651-.636-1.146-1.42-1.486-2.354-.34-.933-.509-2.008-.509-3.225 0-1.052.139-2.043.418-2.971.279-.929.7-1.739 1.264-2.43a5.972 5.972 0 0 1 2.128-1.64c.856-.402 1.861-.603 3.015-.603.53 0 1.063.039 1.598.116.535.078 1.049.21 1.543.398.493.188.949.44 1.368.755.418.316.776.707 1.074 1.174.279.439.51.912.691 1.42.182.508.326 1.031.433 1.572.107.54.183 1.081.23 1.626.047.544.07 1.068.07 1.571v.11h-10.176c.047.576.184 1.09.412 1.544a3.6 3.6 0 0 0 .894 1.146c.367.31.797.549 1.291.714a5.045 5.045 0 0 0 1.605.246c.874 0 1.721-.137 2.54-.411a12.81 12.81 0 0 0 2.345-1.057v3.074zM139.496 33.178h3.406v3.294h.056c.074-.449.228-.864.46-1.25.233-.383.498-.745.796-1.083.354-.403.77-.718 1.249-.947a3.505 3.505 0 0 1 1.528-.343 6.284 6.284 0 0 1 1.173.11v3.787a2.616 2.616 0 0 0-.844-.247 7.272 7.272 0 0 0-.873-.054c-.511 0-.942.096-1.291.288a2.607 2.607 0 0 0-.866.761 3.8 3.8 0 0 0-.536 1.091 7.71 7.71 0 0 0-.287 1.27c-.06.434-.097.869-.111 1.303-.015.435-.021.831-.021 1.188v5.31h-3.839V33.179zM157.272 35.772c-.634 0-1.168.146-1.605.439a3.433 3.433 0 0 0-1.061 1.125 5.08 5.08 0 0 0-.587 1.517 7.543 7.543 0 0 0-.181 1.613c0 .493.065 1.01.195 1.55.131.54.33 1.036.601 1.49.269.452.619.827 1.046 1.124.428.298.936.447 1.522.447.623 0 1.145-.151 1.563-.453a3.33 3.33 0 0 0 .998-1.14c.247-.457.421-.962.524-1.516a8.757 8.757 0 0 0 .153-1.585c0-.503-.047-1.027-.14-1.572a5.032 5.032 0 0 0-.495-1.495 3.083 3.083 0 0 0-.97-1.112c-.41-.288-.931-.432-1.563-.432zm-7.3-9.195h3.838v8.454h.056c.53-.75 1.163-1.302 1.898-1.654.735-.352 1.568-.528 2.499-.528 1.144 0 2.112.205 2.903.617.79.412 1.428.963 1.912 1.654.484.69.833 1.491 1.047 2.401.214.911.321 1.865.321 2.862 0 .988-.109 1.94-.328 2.855a7.214 7.214 0 0 1-1.06 2.436 5.358 5.358 0 0 1-1.913 1.694c-.786.42-1.747.632-2.882.632-.903 0-1.74-.174-2.513-.522-.772-.347-1.437-.878-1.996-1.592h-.056v1.77h-3.726v-21.08zM176.418 38.997a5.117 5.117 0 0 0-.223-1.338 3.21 3.21 0 0 0-.572-1.084 2.603 2.603 0 0 0-.949-.72c-.382-.175-.838-.262-1.368-.262-.521 0-.984.087-1.389.261a3.12 3.12 0 0 0-1.04.714 3.273 3.273 0 0 0-.677 1.077 4.662 4.662 0 0 0-.3 1.352h6.518zm2.569 7.85a7.784 7.784 0 0 1-2.443.906c-.865.165-1.735.247-2.61.247-1.237 0-2.333-.163-3.287-.487-.954-.325-1.757-.805-2.408-1.441s-1.147-1.42-1.487-2.354c-.339-.933-.509-2.008-.509-3.225 0-1.052.14-2.043.418-2.971.28-.929.701-1.739 1.264-2.43a5.976 5.976 0 0 1 2.129-1.64c.855-.402 1.861-.603 3.015-.603.53 0 1.063.039 1.598.116.535.078 1.049.21 1.542.398.493.188.949.44 1.368.755.419.316.777.707 1.075 1.174.279.439.509.912.691 1.42.181.508.325 1.031.432 1.572.107.54.184 1.081.231 1.626.046.544.07 1.068.07 1.571v.11H169.9c.047.576.184 1.09.412 1.544.228.453.525.834.893 1.146.368.31.798.549 1.291.714a5.05 5.05 0 0 0 1.606.246c.874 0 1.721-.137 2.54-.411.818-.275 1.6-.627 2.345-1.057v3.074zM182.58 33.178h3.573v2.031h.056a5.772 5.772 0 0 1 1.884-1.736c.736-.416 1.568-.624 2.499-.624.996 0 1.857.199 2.582.597.726.398 1.312 1.05 1.759 1.955.223-.42.5-.789.831-1.104.33-.316.695-.582 1.095-.797.4-.215.828-.377 1.284-.487.456-.11.922-.164 1.396-.164.912 0 1.668.14 2.268.418.601.28 1.077.666 1.431 1.16.354.494.603 1.082.747 1.764.144.681.216 1.42.216 2.216v9.25h-3.838v-8.633c0-.42-.017-.825-.049-1.214a2.973 2.973 0 0 0-.265-1.036 1.722 1.722 0 0 0-.656-.728c-.293-.183-.705-.274-1.236-.274-.419 0-.781.075-1.088.227a2.29 2.29 0 0 0-.775.61 3.26 3.26 0 0 0-.509.885 5.947 5.947 0 0 0-.301 1.043c-.07.362-.116.723-.139 1.085a15.24 15.24 0 0 0-.035 1.008v7.027h-3.839v-8.633c0-.42-.016-.825-.048-1.214a2.951 2.951 0 0 0-.266-1.036 1.716 1.716 0 0 0-.656-.728c-.293-.183-.705-.274-1.235-.274-.419 0-.781.075-1.089.227-.307.15-.565.354-.774.61-.21.256-.38.551-.51.885-.13.334-.23.682-.3 1.043-.07.362-.117.723-.139 1.085a15.24 15.24 0 0 0-.035 1.008v7.027h-3.839V33.178zM207.538 33.178h3.839v14.479h-3.839V33.178zm0-6.23h3.839v3.595h-3.839v-3.596zM220.706 48c-.763 0-1.435-.106-2.017-.316a3.8 3.8 0 0 1-1.459-.92 3.92 3.92 0 0 1-.886-1.475c-.2-.58-.3-1.242-.3-1.983v-7.37h-2.819v-2.758h2.819v-2.896l3.838-1.207v4.103h3.406v2.758h-3.406v6.862c0 .293.03.574.091.844s.161.512.301.728c.139.215.325.386.558.514.232.128.516.192.851.192.298 0 .598-.027.9-.082.303-.055.584-.16.845-.316l.111 2.979a7.269 7.269 0 0 1-1.402.274c-.479.046-.956.069-1.431.069zM231.976 48c-.764 0-1.436-.106-2.017-.316a3.792 3.792 0 0 1-1.459-.92 3.907 3.907 0 0 1-.886-1.475c-.201-.58-.3-1.242-.3-1.983v-7.37h-2.82v-2.758h2.82v-2.896l3.838-1.207v4.103h3.406v2.758h-3.406v6.862c0 .293.03.574.091.844.06.27.16.512.3.728.14.215.325.386.558.514.232.128.517.192.852.192.298 0 .598-.027.9-.082.302-.055.584-.16.845-.316l.111 2.979a7.279 7.279 0 0 1-1.403.274 15.12 15.12 0 0 1-1.43.069zM245.902 38.997a5.117 5.117 0 0 0-.224-1.338 3.192 3.192 0 0 0-.572-1.084 2.595 2.595 0 0 0-.949-.72c-.381-.175-.837-.262-1.368-.262-.521 0-.984.087-1.389.261a3.13 3.13 0 0 0-1.04.714 3.273 3.273 0 0 0-.677 1.077 4.662 4.662 0 0 0-.3 1.352h6.519zm2.568 7.85a7.779 7.779 0 0 1-2.442.906c-.866.165-1.736.247-2.611.247-1.237 0-2.333-.163-3.287-.487-.954-.325-1.756-.805-2.408-1.441-.651-.636-1.146-1.42-1.486-2.354-.34-.933-.509-2.008-.509-3.225 0-1.052.139-2.043.418-2.971.279-.929.7-1.739 1.263-2.43a5.976 5.976 0 0 1 2.129-1.64c.856-.402 1.861-.603 3.015-.603.53 0 1.063.039 1.598.116.535.078 1.049.21 1.543.398.493.188.949.44 1.368.755.418.316.776.707 1.074 1.174.279.439.51.912.691 1.42.182.508.326 1.031.433 1.572.107.54.183 1.081.23 1.626.047.544.07 1.068.07 1.571v.11h-10.176c.047.576.184 1.09.412 1.544a3.6 3.6 0 0 0 .894 1.146c.367.31.797.549 1.291.714a5.04 5.04 0 0 0 1.605.246c.874 0 1.721-.137 2.54-.411a12.81 12.81 0 0 0 2.345-1.057v3.074zM252.161 26.577H256v21.08h-3.839v-21.08z" fill="#fff"/><path d="M15.338 14.668a15.281 15.281 0 0 0-2.668-.75 15.73 15.73 0 0 0-2.756-.229c-.411 0-.83.04-1.257.12-.426.08-.808.218-1.146.413a2.529 2.529 0 0 0-.838.782c-.22.326-.33.736-.33 1.228 0 .45.15.815.451 1.098.302.282.7.525 1.192.727.492.203 1.054.391 1.687.565.632.174 1.279.373 1.94.598.662.224 1.309.5 1.941.825a6.494 6.494 0 0 1 1.687 1.25c.493.507.89 1.13 1.19 1.869.302.738.453 1.637.453 2.694 0 1.362-.284 2.517-.85 3.466a6.978 6.978 0 0 1-2.232 2.314c-.921.594-1.968 1.025-3.139 1.293a15.96 15.96 0 0 1-3.569.402c-1.164 0-2.32-.087-3.47-.26a30.236 30.236 0 0 1-3.403-.718l.355-4.91a12.538 12.538 0 0 0 6.01 1.52c.44 0 .89-.05 1.351-.152a4.412 4.412 0 0 0 1.275-.489c.388-.224.706-.514.956-.869.249-.355.374-.786.374-1.293 0-.246-.03-.503-.088-.771a1.7 1.7 0 0 0-.332-.706 2.638 2.638 0 0 0-.962-.75 10.59 10.59 0 0 0-1.392-.543 33.233 33.233 0 0 0-1.657-.478 17.203 17.203 0 0 1-1.735-.554 10.84 10.84 0 0 1-1.658-.793 5.599 5.599 0 0 1-1.392-1.152 5.369 5.369 0 0 1-.962-1.651C.121 18.119 0 17.348 0 16.448c0-1.26.261-2.339.784-3.238a6.638 6.638 0 0 1 2.067-2.205c.854-.572 1.83-.992 2.928-1.26a14.061 14.061 0 0 1 3.348-.402c1.15 0 2.262.068 3.338.206 1.075.138 2.165.352 3.27.641l-.397 4.476zM19.44 9.865h6.077V32.79h-6.078V9.865zm0-9.865h6.077v5.693h-6.078V0zM29.62 9.865h5.745v3.13h.11c.973-1.246 2.09-2.165 3.349-2.76 1.26-.594 2.692-.891 4.298-.891 1.415 0 2.623.228 3.625.685 1.002.456 1.82 1.082 2.453 1.879.633.797 1.097 1.746 1.392 2.847.295 1.1.443 2.289.443 3.563V32.79h-6.056V20.556c0-.767-.019-1.503-.055-2.205a7.57 7.57 0 0 0-.453-2.162c-.31-.854-.737-1.438-1.282-1.75-.545-.31-1.268-.466-2.166-.466-1.017 0-1.864.242-2.542.727a5.529 5.529 0 0 0-1.635 1.848 8.42 8.42 0 0 0-.884 2.455c-.177.89-.265 1.749-.265 2.575V32.79h-6.078V9.865zM59.866 20.773c0 .218.011.439.034.663.022.225.047.445.077.663.088.594.184 1.17.286 1.727.103.558.261 1.084.475 1.576.213.493.489.952.827 1.38.338.427.786.814 1.346 1.162.44.29.89.49 1.345.598.456.108.941.163 1.456.163 1.191 0 2.165-.232 2.923-.696a5.118 5.118 0 0 0 1.786-1.814c.434-.746.735-1.594.904-2.543.17-.948.254-1.908.254-2.879a9.35 9.35 0 0 0-.353-2.596 6.432 6.432 0 0 0-1.07-2.162 5.203 5.203 0 0 0-1.82-1.489c-.735-.37-1.61-.554-2.624-.554-.97 0-1.82.192-2.548.576a5.502 5.502 0 0 0-1.82 1.521 6.762 6.762 0 0 0-1.103 2.173 8.612 8.612 0 0 0-.375 2.531zm-6.343.717c0-1.796.288-3.44.862-4.932.575-1.492 1.393-2.77 2.454-3.835 1.06-1.065 2.338-1.894 3.834-2.488 1.495-.594 3.171-.891 5.028-.891 1.856 0 3.54.293 5.05.88 1.51.586 2.795 1.412 3.856 2.477s1.879 2.344 2.453 3.835c.575 1.492.862 3.144.862 4.954 0 1.782-.298 3.405-.895 4.868-.596 1.463-1.433 2.709-2.508 3.737-1.076 1.03-2.365 1.826-3.868 2.39-1.503.566-3.153.848-4.95.848-1.798 0-3.44-.286-4.929-.859-1.488-.572-2.77-1.375-3.845-2.411-1.076-1.036-1.912-2.282-2.508-3.737-.597-1.457-.896-3.068-.896-4.836zM94.245 14.668a15.281 15.281 0 0 0-2.668-.75 15.73 15.73 0 0 0-2.756-.229c-.411 0-.83.04-1.256.12-.427.08-.809.218-1.147.413a2.528 2.528 0 0 0-.838.782c-.22.326-.33.736-.33 1.228 0 .45.15.815.452 1.098.301.282.699.525 1.19.727.493.203 1.056.391 1.688.565.632.174 1.28.373 1.94.598.663.224 1.31.5 1.941.825a6.495 6.495 0 0 1 1.688 1.25c.492.507.889 1.13 1.19 1.869.302.738.453 1.637.453 2.694 0 1.362-.284 2.517-.851 3.466a6.977 6.977 0 0 1-2.232 2.314c-.921.594-1.968 1.025-3.139 1.293a15.96 15.96 0 0 1-3.569.402c-1.164 0-2.32-.087-3.47-.26a30.233 30.233 0 0 1-3.403-.718l.356-4.91a12.538 12.538 0 0 0 6.009 1.52c.44 0 .89-.05 1.352-.152a4.412 4.412 0 0 0 1.274-.489c.388-.224.707-.514.956-.869.25-.355.374-.786.374-1.293 0-.246-.03-.503-.088-.771a1.701 1.701 0 0 0-.332-.706 2.639 2.639 0 0 0-.961-.75c-.406-.196-.87-.377-1.393-.543a33.229 33.229 0 0 0-1.657-.478 17.205 17.205 0 0 1-1.735-.554 10.84 10.84 0 0 1-1.658-.793 5.598 5.598 0 0 1-1.392-1.152 5.368 5.368 0 0 1-.961-1.651c-.243-.645-.365-1.416-.365-2.315 0-1.26.261-2.339.784-3.238a6.639 6.639 0 0 1 2.067-2.205c.854-.572 1.83-.992 2.928-1.26a14.062 14.062 0 0 1 3.348-.402c1.15 0 2.262.068 3.338.206 1.075.138 2.166.352 3.27.641l-.397 4.476zM109.848 33.333c-1.209 0-2.273-.166-3.194-.5-.921-.332-1.69-.818-2.309-1.456-.619-.637-1.087-1.415-1.404-2.335-.317-.92-.475-1.967-.475-3.14V14.233h-4.464V9.865h4.464V5.28l6.078-1.912v6.497h5.392v4.368h-5.392v10.865c0 .464.047.909.144 1.336.095.427.253.812.475 1.152.221.34.515.612.883.815.369.203.818.304 1.349.304.471 0 .946-.044 1.425-.13a3.968 3.968 0 0 0 1.337-.5l.177 4.715c-.722.217-1.462.362-2.221.435a23.94 23.94 0 0 1-2.265.108zM122.401 26.162c0 .521.117.96.353 1.315.235.355.538.645.906.869.368.225.781.384 1.238.478.456.094.906.141 1.348.141.972 0 1.808-.184 2.508-.553.7-.37 1.271-.862 1.713-1.478.442-.616.77-1.322.983-2.12a9.505 9.505 0 0 0 .321-2.476v-.13h-3.668c-.634 0-1.29.065-1.968.195a6.062 6.062 0 0 0-1.845.663 4.067 4.067 0 0 0-1.359 1.228c-.354.507-.53 1.13-.53 1.868zm-3.271-15.08a21.285 21.285 0 0 1 4.088-1.304 20.902 20.902 0 0 1 4.288-.434c3.196 0 5.628.771 7.293 2.314 1.665 1.543 2.497 3.908 2.497 7.095 0 2.361.018 4.7.056 7.018.036 2.318.135 4.658.298 7.019h-5.349a43.24 43.24 0 0 1-.187-1.706 19.076 19.076 0 0 1-.078-1.728h-.088a7.56 7.56 0 0 1-1.338 1.674 8.248 8.248 0 0 1-1.723 1.25 8.722 8.722 0 0 1-4.144 1.053 9.947 9.947 0 0 1-2.983-.456 8.465 8.465 0 0 1-2.608-1.323 6.666 6.666 0 0 1-1.846-2.137c-.464-.846-.696-1.812-.696-2.897 0-.752.085-1.475.254-2.17.169-.694.475-1.36.917-1.996a6.813 6.813 0 0 1 2.144-1.996c.84-.491 1.746-.864 2.718-1.117a16.505 16.505 0 0 1 3.04-.488 45.143 45.143 0 0 1 3.105-.11c.515 0 1.023.004 1.524.012.501.007.987.01 1.459.01 0-.916-.103-1.69-.309-2.324-.207-.633-.527-1.145-.962-1.538-.435-.393-.983-.677-1.646-.851-.663-.175-1.444-.263-2.343-.263-1.341 0-2.612.218-3.812.652a12.651 12.651 0 0 0-3.371 1.848l-.198-5.107zM143.396 9.865h5.393v5.216h.088c.118-.71.361-1.37.73-1.978.368-.608.787-1.18 1.26-1.716a6.092 6.092 0 0 1 1.978-1.5 5.545 5.545 0 0 1 2.42-.543 10.102 10.102 0 0 1 1.856.174v5.997a4.143 4.143 0 0 0-1.337-.39c-.479-.059-.94-.088-1.381-.088-.811 0-1.493.152-2.045.457a4.115 4.115 0 0 0-1.37 1.206 6.031 6.031 0 0 0-.851 1.727 12.208 12.208 0 0 0-.453 2.01 19.696 19.696 0 0 0-.177 2.065 59.191 59.191 0 0 0-.033 1.879v8.409h-6.078V9.865z" fill="#BCC2BB"/></svg>