<svg width="128" height="25" fill="none" xmlns="http://www.w3.org/2000/svg"><path d="M48.88 16.833h2.024l1.633 5.359h.028l1.486-5.36h2.227l1.605 5.36h.028l1.528-5.36h1.829l-2.255 7.24h-2.26l-1.599-5.524h-.028l-1.577 5.524h-2.184l-2.485-7.24zM66.636 19.742a2.567 2.567 0 0 0-.112-.669 1.601 1.601 0 0 0-.286-.542 1.3 1.3 0 0 0-.474-.36 1.64 1.64 0 0 0-.684-.13c-.26 0-.492.043-.695.13a1.562 1.562 0 0 0-.858.895 2.334 2.334 0 0 0-.15.676h3.259zm1.284 3.925c-.381.22-.788.37-1.221.453a6.964 6.964 0 0 1-1.305.124c-.619 0-1.167-.082-1.644-.244a3.147 3.147 0 0 1-1.204-.72 3.098 3.098 0 0 1-.743-1.177c-.17-.467-.255-1.004-.255-1.613 0-.526.07-1.021.21-1.485.14-.465.35-.87.631-1.215a2.987 2.987 0 0 1 1.065-.82c.428-.201.93-.302 1.507-.302.265 0 .532.02.8.059.267.038.524.105.77.199.247.093.475.219.684.377.21.158.389.353.537.587.14.22.255.456.346.71.091.254.163.515.216.786.054.27.092.54.116.813.023.272.035.534.035.785v.055h-5.088c.023.288.092.546.206.772.114.227.263.418.446.573.184.155.4.274.646.357.246.082.514.123.803.123.437 0 .86-.068 1.27-.206.409-.137.8-.313 1.172-.528v1.537zM69.749 16.833h1.702v1.646h.028c.038-.224.114-.432.23-.624.117-.192.25-.373.398-.542.177-.201.385-.359.625-.474.24-.114.495-.171.764-.171a3.125 3.125 0 0 1 .587.055v1.894a1.307 1.307 0 0 0-.423-.124 3.652 3.652 0 0 0-.436-.027c-.256 0-.471.048-.645.144a1.298 1.298 0 0 0-.433.38 1.9 1.9 0 0 0-.269.546 3.857 3.857 0 0 0-.143.635c-.03.217-.049.434-.056.652-.007.217-.01.415-.01.593v2.656h-1.92v-7.24zM78.636 18.13c-.317 0-.584.073-.803.22a1.717 1.717 0 0 0-.53.562 2.542 2.542 0 0 0-.293.758c-.06.277-.091.546-.091.806 0 .247.032.506.098.776.065.27.165.518.3.744.135.227.31.414.523.563.214.149.468.223.761.223.312 0 .572-.076.782-.227.21-.15.375-.34.499-.569.123-.229.21-.482.261-.758a4.36 4.36 0 0 0 .077-.793 4.67 4.67 0 0 0-.07-.785 2.51 2.51 0 0 0-.248-.748 1.544 1.544 0 0 0-.485-.556c-.204-.144-.465-.216-.781-.216zm-3.65-4.598h1.919v4.227h.028c.265-.375.581-.65.95-.827a2.854 2.854 0 0 1 1.248-.264c.573 0 1.057.103 1.452.309.395.206.714.481.956.827.242.345.416.745.524 1.2.107.456.16.933.16 1.431 0 .494-.055.97-.164 1.428-.11.457-.286.863-.53 1.218a2.677 2.677 0 0 1-.956.847c-.394.21-.874.316-1.442.316-.45 0-.87-.087-1.256-.261a2.627 2.627 0 0 1-.998-.796h-.028v.885h-1.863v-10.54zM88.21 19.742a2.567 2.567 0 0 0-.112-.669 1.601 1.601 0 0 0-.286-.542 1.3 1.3 0 0 0-.475-.36 1.64 1.64 0 0 0-.684-.13c-.26 0-.492.043-.694.13a1.562 1.562 0 0 0-.859.895 2.334 2.334 0 0 0-.15.676h3.26zm1.284 3.925a3.89 3.89 0 0 1-1.221.453 6.963 6.963 0 0 1-1.306.124c-.618 0-1.166-.082-1.643-.244a3.146 3.146 0 0 1-1.204-.72 3.099 3.099 0 0 1-.743-1.177c-.17-.467-.255-1.004-.255-1.613 0-.526.07-1.021.21-1.485.139-.465.35-.87.631-1.215a2.986 2.986 0 0 1 1.064-.82c.428-.201.93-.302 1.508-.302.265 0 .531.02.799.059.267.038.524.105.771.199.247.093.475.219.684.377.21.158.388.353.537.587.14.22.255.456.346.71.09.254.163.515.216.786.054.27.092.54.115.813.024.272.035.534.035.785v.055H84.95c.024.288.092.546.206.772.114.227.263.418.447.573.184.155.399.274.646.357.246.082.514.123.802.123.437 0 .861-.068 1.27-.206.41-.137.8-.313 1.173-.528v1.537zM91.29 16.833h1.787v1.015h.028c.26-.37.575-.66.942-.868a2.49 2.49 0 0 1 1.25-.312c.497 0 .928.1 1.29.298.364.2.657.525.88.978.112-.21.25-.394.415-.552.165-.158.348-.29.548-.398.2-.108.414-.189.642-.244.228-.055.46-.082.698-.082.456 0 .834.07 1.134.21.3.139.539.332.716.58.177.246.301.54.373.88.072.342.108.711.108 1.109v4.625h-1.919v-4.316c0-.21-.008-.413-.024-.607a1.497 1.497 0 0 0-.133-.518.86.86 0 0 0-.328-.364c-.147-.092-.353-.137-.618-.137-.21 0-.39.037-.544.113a1.148 1.148 0 0 0-.388.305c-.104.128-.19.276-.254.443-.066.167-.115.34-.15.521-.035.18-.059.361-.07.542-.012.18-.017.349-.017.505v3.513h-1.92v-4.316c0-.21-.008-.413-.024-.607a1.48 1.48 0 0 0-.133-.518.86.86 0 0 0-.328-.364c-.146-.092-.352-.137-.618-.137-.209 0-.39.037-.544.113a1.147 1.147 0 0 0-.387.305c-.105.128-.19.276-.255.443-.065.167-.115.34-.15.521-.035.18-.058.361-.07.542-.011.18-.017.349-.017.505v3.513h-1.92v-7.24zM103.77 16.833h1.919v7.239h-1.919v-7.24zm0-3.116h1.919v1.798h-1.919v-1.798zM110.354 24.244a2.96 2.96 0 0 1-1.009-.158 1.89 1.89 0 0 1-.729-.46 1.947 1.947 0 0 1-.443-.738 3.012 3.012 0 0 1-.15-.991v-3.685h-1.41v-1.38h1.41v-1.447l1.919-.604v2.052h1.703v1.38h-1.703v3.43c0 .146.015.287.045.422s.08.256.15.364c.07.107.163.193.279.257a.874.874 0 0 0 .426.096c.149 0 .299-.014.45-.041.151-.027.292-.08.423-.158l.055 1.49a3.638 3.638 0 0 1-.701.136c-.24.023-.478.035-.715.035zM115.989 24.244a2.96 2.96 0 0 1-1.009-.158 1.898 1.898 0 0 1-.729-.46 1.96 1.96 0 0 1-.443-.738c-.1-.29-.15-.62-.15-.991v-3.685h-1.41v-1.38h1.41v-1.447l1.919-.604v2.052h1.703v1.38h-1.703v3.43c0 .146.015.287.045.422.031.135.081.256.151.364a.758.758 0 0 0 .279.257.87.87 0 0 0 .425.096c.149 0 .299-.014.45-.041.152-.027.292-.08.423-.158l.056 1.49a3.648 3.648 0 0 1-.702.136 7.569 7.569 0 0 1-.715.035zM122.951 19.742a2.558 2.558 0 0 0-.111-.669 1.623 1.623 0 0 0-.286-.542 1.304 1.304 0 0 0-.475-.36 1.642 1.642 0 0 0-.684-.13c-.26 0-.492.043-.694.13a1.556 1.556 0 0 0-.859.895 2.364 2.364 0 0 0-.15.676h3.259zm1.285 3.925c-.382.22-.789.37-1.222.453a6.966 6.966 0 0 1-1.305.124c-.619 0-1.166-.082-1.643-.244a3.135 3.135 0 0 1-1.204-.72 3.098 3.098 0 0 1-.744-1.177c-.169-.467-.254-1.004-.254-1.613 0-.526.07-1.021.209-1.485.14-.465.35-.87.632-1.215a2.986 2.986 0 0 1 1.064-.82c.428-.201.931-.302 1.508-.302.265 0 .531.02.798.059.268.038.525.105.772.199.246.093.474.219.684.377.209.158.388.353.537.587.14.22.255.456.346.71.09.254.162.515.216.786.053.27.092.54.115.813.023.272.035.534.035.785v.055h-5.088c.023.288.092.546.206.772.114.227.263.418.447.573.183.155.399.274.645.357.247.082.514.123.803.123a3.97 3.97 0 0 0 1.27-.206c.409-.137.8-.313 1.173-.528v1.537zM126.081 13.532H128v10.54h-1.919v-10.54z" fill="#fff"/><path d="M7.669 7.579a7.642 7.642 0 0 0-1.334-.375 7.866 7.866 0 0 0-1.378-.114c-.206 0-.415.02-.628.06-.214.04-.405.108-.573.206-.17.098-.31.228-.42.391-.11.163-.165.368-.165.614 0 .224.076.407.226.549.151.14.35.262.596.363.246.102.527.196.843.283.316.087.64.186.97.299.332.112.655.25.971.412.316.164.597.372.844.625.246.254.444.565.595.934.15.37.226.82.226 1.348 0 .68-.142 1.258-.425 1.733-.284.474-.656.86-1.116 1.157-.46.297-.984.512-1.57.646-.585.134-1.18.201-1.784.201-.582 0-1.16-.043-1.735-.13a15.118 15.118 0 0 1-1.702-.359l.178-2.455c.946.507 1.948.76 3.005.76.22 0 .445-.025.676-.076.23-.05.443-.132.637-.244.194-.112.353-.257.478-.435.124-.177.187-.393.187-.646 0-.123-.015-.252-.044-.386a.85.85 0 0 0-.166-.353 1.32 1.32 0 0 0-.48-.375 5.302 5.302 0 0 0-.697-.271 16.617 16.617 0 0 0-.829-.24 8.59 8.59 0 0 1-.867-.276 5.406 5.406 0 0 1-.829-.397 2.798 2.798 0 0 1-.696-.576 2.685 2.685 0 0 1-.48-.825C.06 9.304 0 8.919 0 8.47c0-.63.13-1.17.392-1.62a3.319 3.319 0 0 1 1.034-1.102 4.536 4.536 0 0 1 1.464-.63 7.03 7.03 0 0 1 1.674-.201c.574 0 1.13.034 1.668.103.538.069 1.083.176 1.636.32l-.2 2.239zM9.72 5.176h3.038v11.462H9.72V5.176zm0-4.932h3.038V3.09H9.72V.244zM14.81 5.176h2.873v1.565h.055c.486-.623 1.045-1.083 1.675-1.38.63-.297 1.346-.446 2.149-.446.707 0 1.31.115 1.812.343.5.228.91.541 1.227.94.316.398.548.872.696 1.423.147.55.22 1.144.22 1.782v7.235H22.49v-6.117c0-.383-.01-.751-.028-1.102a3.783 3.783 0 0 0-.226-1.081c-.155-.427-.369-.719-.641-.875-.273-.155-.634-.233-1.083-.233-.508 0-.932.12-1.27.363-.34.243-.612.551-.819.924a4.21 4.21 0 0 0-.441 1.228 6.613 6.613 0 0 0-.133 1.287v5.606H14.81V5.176zM29.933 10.631c0 .109.006.22.017.332.01.112.023.223.038.331.044.297.092.585.144.864.051.279.13.542.237.788.106.246.244.476.413.69.17.213.394.407.673.58.22.146.445.245.673.3.228.054.47.081.728.081.596 0 1.083-.116 1.461-.348a2.56 2.56 0 0 0 .894-.907c.216-.373.367-.797.452-1.271.084-.474.127-.954.127-1.44 0-.456-.06-.889-.177-1.298a3.218 3.218 0 0 0-.535-1.08 2.603 2.603 0 0 0-.91-.745c-.367-.185-.805-.277-1.312-.277-.485 0-.91.096-1.274.288a2.75 2.75 0 0 0-.91.76 3.382 3.382 0 0 0-.551 1.087c-.125.41-.188.83-.188 1.265zm-3.171.359c0-.898.143-1.72.43-2.466a5.455 5.455 0 0 1 1.227-1.918 5.572 5.572 0 0 1 1.917-1.244c.748-.297 1.586-.445 2.514-.445.929 0 1.77.147 2.525.44a5.49 5.49 0 0 1 1.929 1.238c.53.533.939 1.172 1.226 1.918.288.746.431 1.572.431 2.477 0 .89-.149 1.702-.447 2.434a5.335 5.335 0 0 1-1.255 1.868 5.615 5.615 0 0 1-1.933 1.195c-.752.283-1.577.424-2.476.424-.898 0-1.72-.143-2.464-.43a5.661 5.661 0 0 1-1.922-1.205 5.403 5.403 0 0 1-1.255-1.868c-.298-.729-.447-1.534-.447-2.418zM47.122 7.579a7.641 7.641 0 0 0-1.333-.375 7.866 7.866 0 0 0-1.378-.114c-.206 0-.416.02-.629.06-.213.04-.404.108-.573.206-.169.098-.309.228-.419.391-.11.163-.165.368-.165.614 0 .224.075.407.226.549.15.14.35.262.595.363.247.102.528.196.844.283.316.087.64.186.97.299.331.112.655.25.97.412.317.164.598.372.844.625.247.254.445.565.596.934.15.37.226.82.226 1.348 0 .68-.142 1.258-.426 1.733-.283.474-.655.86-1.116 1.157-.46.297-.983.512-1.569.646s-1.18.201-1.784.201c-.582 0-1.16-.043-1.735-.13a15.118 15.118 0 0 1-1.702-.359l.178-2.455c.946.507 1.948.76 3.005.76.22 0 .444-.025.675-.076.231-.05.443-.132.638-.244.194-.112.353-.257.478-.435.124-.177.187-.393.187-.646 0-.123-.015-.252-.045-.386a.85.85 0 0 0-.165-.353 1.32 1.32 0 0 0-.481-.375 5.31 5.31 0 0 0-.696-.271 16.632 16.632 0 0 0-.829-.24 8.59 8.59 0 0 1-.868-.276 5.403 5.403 0 0 1-.828-.397 2.797 2.797 0 0 1-.696-.576 2.684 2.684 0 0 1-.481-.825c-.122-.323-.182-.708-.182-1.157 0-.63.13-1.17.392-1.62a3.32 3.32 0 0 1 1.033-1.102 4.537 4.537 0 0 1 1.464-.63 7.03 7.03 0 0 1 1.674-.201c.575 0 1.131.034 1.669.103.538.069 1.083.176 1.635.32l-.199 2.239zM54.924 16.911c-.604 0-1.137-.083-1.597-.25a3.002 3.002 0 0 1-1.155-.728 3.095 3.095 0 0 1-.701-1.168 4.809 4.809 0 0 1-.238-1.57V7.361h-2.232V5.177h2.232V2.885l3.039-.956v3.248h2.696v2.184h-2.696v5.433c0 .231.024.454.072.668.048.213.127.405.237.575.11.17.258.307.442.408.184.101.41.152.674.152a4 4 0 0 0 .713-.065 1.98 1.98 0 0 0 .669-.25l.088 2.358c-.361.108-.731.18-1.11.217-.38.036-.758.054-1.133.054zM61.2 13.326c0 .26.06.48.177.657.118.178.27.322.454.435.184.112.39.192.618.239.229.047.454.07.674.07.487 0 .905-.092 1.255-.277.35-.184.635-.43.856-.739a3.23 3.23 0 0 0 .492-1.059 4.76 4.76 0 0 0 .16-1.238v-.066h-1.834c-.317 0-.645.033-.984.098a3.031 3.031 0 0 0-.922.332c-.277.156-.503.36-.68.614-.177.253-.265.564-.265.934zm-1.635-7.54c.67-.29 1.352-.507 2.044-.652a10.452 10.452 0 0 1 2.144-.217c1.599 0 2.814.385 3.647 1.157.832.771 1.249 1.954 1.249 3.547 0 1.18.009 2.35.027 3.51.019 1.158.068 2.328.15 3.508H66.15a21.427 21.427 0 0 1-.094-.852 9.575 9.575 0 0 1-.038-.864h-.045c-.184.311-.407.59-.668.836a4.13 4.13 0 0 1-.862.625 4.362 4.362 0 0 1-2.072.527 4.978 4.978 0 0 1-1.492-.228 4.237 4.237 0 0 1-1.304-.661 3.332 3.332 0 0 1-.922-1.069 2.962 2.962 0 0 1-.348-1.448c0-.376.042-.738.127-1.085.084-.347.237-.68.458-.998.295-.42.652-.753 1.072-.998.42-.246.873-.432 1.36-.559a8.245 8.245 0 0 1 1.519-.244 22.576 22.576 0 0 1 1.552-.054c.258 0 .512.001.763.005.25.004.493.006.73.006 0-.459-.053-.846-.156-1.163a1.74 1.74 0 0 0-.48-.769 1.942 1.942 0 0 0-.824-.425 4.642 4.642 0 0 0-1.17-.131c-.671 0-1.307.108-1.907.326-.6.217-1.162.525-1.685.923l-.1-2.553zM71.698 5.176h2.696v2.608h.045c.059-.355.18-.685.364-.989a5.97 5.97 0 0 1 .63-.858c.28-.319.61-.569.99-.75.379-.18.782-.272 1.21-.272a5.048 5.048 0 0 1 .927.087v2.999a2.07 2.07 0 0 0-.668-.196 5.79 5.79 0 0 0-.69-.043c-.406 0-.747.076-1.023.228a2.054 2.054 0 0 0-.685.603c-.18.25-.322.538-.425.864a6.106 6.106 0 0 0-.227 1.005 9.765 9.765 0 0 0-.088 1.032c-.011.344-.017.657-.017.94v4.204h-3.039V5.176z" fill="#BCC2BB"/></svg>